<?xml version="1.0" encoding="UTF-8" standalone="no"?>
<svg style="width:1em;height:1em;vertical-align:middle;fill:currentColor" x="0" y="0" viewBox="0 0 1024 1024" version="1.1" xmlns="http://www.w3.org/2000/svg" xmlns:svg="http://www.w3.org/2000/svg">
	<path stroke-width="1" d="m 39.714985,524.95506 a 17.296503,17.294897 0 0 1 12.16141,-29.54008 l 443.256245,-0.69561 -0.25476,-168.22661 a 51.924105,51.919285 0 0 1 51.80305,-51.95536 l 24.46093,-0.037 a 51.543582,51.538797 0 0 1 36.71441,15.15774 l 77.70754,77.46536 a 17.192725,17.191129 0 0 0 12.21368,5.04443 l 205.81419,-0.31165 a 7.1261593,7.1254978 0 0 0 7.1562,-7.17722 41.857539,41.853653 0 0 1 41.69157,-41.81415 l 38.79502,-0.0588 a 51.474397,51.469619 0 0 1 36.69003,15.18228 c 9.8237,9.79307 15.2493,22.82136 15.2947,36.64045 l 0.4138,273.25205 a 51.924105,51.919285 0 0 1 -51.80308,51.95537 l -38.79502,0.0588 a 41.442424,41.438577 0 0 1 -29.5184,-12.1847 c -7.91285,-7.88818 -12.28274,-18.3499 -12.29963,-29.50304 a 7.0915669,7.0909086 0 0 0 -2.11127,-5.03531 7.0915669,7.0909086 0 0 0 -5.04213,-2.09579 l -205.81421,0.31163 a 17.227318,17.225719 0 0 0 -12.22274,5.10592 l -77.47257,77.70032 c -9.79398,9.82277 -22.79904,15.22337 -36.66835,15.26883 l -24.46092,0.037 c -13.84487,0.021 -26.84182,-5.36473 -36.68999,-15.18221 -9.84819,-9.8175 -15.24931,-22.82135 -15.29468,-36.64045 l -0.25477,-168.22662 -443.256245,0.69562 a 17.919177,17.917514 0 0 1 -12.21401,-5.19121 z M 583.45681,314.1293 a 17.331098,17.329489 0 0 0 -12.23817,-5.06889 l -24.46091,0.037 a 17.296503,17.294897 0 0 0 -17.26769,17.31844 l 0.56199,371.08668 a 17.296503,17.294897 0 0 0 17.34455,17.29051 l 24.46092,-0.037 a 17.434876,17.433258 0 0 0 12.22277,-5.10592 l 77.47255,-77.70033 c 9.79397,-9.82276 22.79904,-15.22337 36.66835,-15.26883 l 205.8142,-0.31164 a 41.511609,41.507755 0 0 1 29.54281,12.16018 41.511609,41.507755 0 0 1 12.2752,29.52753 c 0.003,1.9567 0.73946,3.71661 2.11135,5.08422 a 6.9186015,6.9179592 0 0 0 5.06657,2.07132 l 38.79502,-0.0588 a 17.296503,17.294897 0 0 0 17.26768,-17.31842 l -0.4138,-273.25206 a 17.296503,17.294897 0 0 0 -17.34458,-17.2905 l -38.79502,0.0588 a 7.1607527,7.160088 0 0 0 -7.1562,7.17721 c 0.0348,22.99115 -18.6494,41.77926 -41.66706,41.83858 l -205.83856,0.38504 a 51.543582,51.538797 0 0 1 -36.68992,-15.1333 z" />
</svg>
