<?xml version="1.0" encoding="UTF-8" standalone="no"?>
<svg style="width:1em;height:1em;vertical-align:middle;fill:currentColor" x="0" y="0" viewBox="0 0 1024 1024" version="1.1" xmlns="http://www.w3.org/2000/svg" xmlns:svg="http://www.w3.org/2000/svg">
	<path stroke-width="1" d="m 552.08807,1011.418 a 17.294897,17.296503 0 0 1 -29.54008,-12.16141 l -0.69561,-443.25624 -168.22661,0.25476 a 51.919285,51.924105 0 0 1 -51.95536,-51.80305 l -0.037,-24.46093 a 51.538797,51.543582 0 0 1 15.15774,-36.71441 l 77.46536,-77.70754 a 17.191129,17.192725 0 0 0 5.04443,-12.21368 l -0.31165,-205.81419 a 7.1254978,7.1261593 0 0 0 -7.17722,-7.1562 41.853653,41.857539 0 0 1 -41.81415,-41.691574 l -0.0588,-38.795023 A 51.469619,51.474397 0 0 1 365.1214,23.208514 C 374.91447,13.384831 387.94276,7.9592246 401.76185,7.9138346 L 675.0139,7.5000126 a 51.919285,51.924105 0 0 1 51.95537,51.8030544 l 0.0588,38.795019 a 41.438577,41.442424 0 0 1 -12.1847,29.518404 c -7.88818,7.91285 -18.3499,12.28274 -29.50304,12.29963 a 7.0909086,7.0915669 0 0 0 -5.03531,2.11127 7.0909086,7.0915669 0 0 0 -2.09579,5.04213 l 0.31163,205.81421 a 17.225719,17.227318 0 0 0 5.10592,12.22274 l 77.70032,77.47257 c 9.82277,9.79398 15.22337,22.79904 15.26883,36.66835 l 0.037,24.46092 c 0.021,13.84487 -5.36473,26.84182 -15.18221,36.68999 -9.8175,9.84819 -22.82135,15.24931 -36.64045,15.29468 l -168.22662,0.25477 0.69562,443.25624 a 17.917514,17.919177 0 0 1 -5.19121,12.21401 z M 341.26231,467.67618 a 17.329489,17.331098 0 0 0 -5.06889,12.23817 l 0.037,24.46091 a 17.294897,17.296503 0 0 0 17.31844,17.26769 l 371.08668,-0.56199 a 17.294897,17.296503 0 0 0 17.29051,-17.34455 l -0.037,-24.46092 a 17.433258,17.434876 0 0 0 -5.10592,-12.22277 L 659.0828,389.58017 c -9.82276,-9.79397 -15.22337,-22.79904 -15.26883,-36.66835 l -0.31164,-205.8142 a 41.507755,41.511609 0 0 1 12.16018,-29.54281 41.507755,41.511609 0 0 1 29.52753,-12.2752 c 1.9567,-0.003 3.71661,-0.73946 5.08422,-2.11135 a 6.9179592,6.9186015 0 0 0 2.07132,-5.066574 l -0.0588,-38.795019 A 17.294897,17.296503 0 0 0 674.96836,42.038984 L 401.7163,42.452806 a 17.294897,17.296503 0 0 0 -17.2905,17.344556 l 0.0588,38.795024 a 7.160088,7.1607527 0 0 0 7.17721,7.156204 c 22.99115,-0.0348 41.77926,18.6494 41.83858,41.66706 l 0.38504,205.83856 a 51.538797,51.543582 0 0 1 -15.1333,36.68992 z" />
</svg>
