<?xml version="1.0" encoding="UTF-8" standalone="no"?>
<!-- Created with Inkscape (http://www.inkscape.org/) -->

<svg
   width="150mm"
   height="150mm"
   viewBox="0 0 150 150"
   version="1.1"
   id="svg1"
   inkscape:version="1.3 (0e150ed6c4, 2023-07-21)"
   sodipodi:docname="earth.svg"
   xmlns:inkscape="http://www.inkscape.org/namespaces/inkscape"
   xmlns:sodipodi="http://sodipodi.sourceforge.net/DTD/sodipodi-0.dtd"
   xmlns:xlink="http://www.w3.org/1999/xlink"
   xmlns="http://www.w3.org/2000/svg"
   xmlns:svg="http://www.w3.org/2000/svg">
  <sodipodi:namedview
     id="namedview1"
     pagecolor="#000000"
     bordercolor="#000000"
     borderopacity="0.25"
     inkscape:showpageshadow="2"
     inkscape:pageopacity="0.0"
     inkscape:pagecheckerboard="0"
     inkscape:deskcolor="#212121"
     inkscape:document-units="mm"
     inkscape:zoom="1.0343421"
     inkscape:cx="218.01298"
     inkscape:cy="373.66749"
     inkscape:window-width="1350"
     inkscape:window-height="1003"
     inkscape:window-x="863"
     inkscape:window-y="51"
     inkscape:window-maximized="0"
     inkscape:current-layer="layer3" />
  <defs
     id="defs1">
    <radialGradient
       inkscape:collect="always"
       xlink:href="#linearGradient22"
       id="radialGradient24"
       cx="136.78653"
       cy="22.377054"
       fx="136.78653"
       fy="22.377054"
       r="64.032288"
       gradientUnits="userSpaceOnUse"
       gradientTransform="matrix(-1.146091,-2.0250764,1.6513359,-0.93457279,294.59696,236.39801)" />
    <linearGradient
       id="linearGradient22"
       inkscape:collect="always">
      <stop
         style="stop-color:#000000;stop-opacity:1;"
         offset="0.0096463"
         id="stop25" />
      <stop
         style="stop-color:#01011c;stop-opacity:1;"
         offset="0.41479099"
         id="stop23" />
      <stop
         style="stop-color:#00103c;stop-opacity:1;"
         offset="0.62940288"
         id="stop26" />
      <stop
         style="stop-color:#033e73;stop-opacity:1;"
         offset="0.81792152"
         id="stop27" />
      <stop
         style="stop-color:#027a9d;stop-opacity:1;"
         offset="1"
         id="stop24" />
    </linearGradient>
    <radialGradient
       inkscape:collect="always"
       xlink:href="#linearGradient19"
       id="radialGradient20"
       cx="74.450546"
       cy="-32.854275"
       fx="74.450546"
       fy="-32.854275"
       r="48.483868"
       gradientTransform="matrix(1.6454838,-0.09714343,0.0858325,1.4538908,-45.236664,17.391734)"
       gradientUnits="userSpaceOnUse" />
    <linearGradient
       id="linearGradient19"
       inkscape:collect="always">
      <stop
         style="stop-color:#185631;stop-opacity:1;"
         offset="0"
         id="stop21" />
      <stop
         style="stop-color:#103f1d;stop-opacity:1;"
         offset="0.28295821"
         id="stop19" />
      <stop
         style="stop-color:#0e170e;stop-opacity:1;"
         offset="0.54340833"
         id="stop22" />
      <stop
         style="stop-color:#020403;stop-opacity:1;"
         offset="1"
         id="stop20" />
    </linearGradient>
    <radialGradient
       inkscape:collect="always"
       xlink:href="#linearGradient39"
       id="radialGradient40"
       cx="143.03749"
       cy="-50.908833"
       fx="143.03749"
       fy="-50.908833"
       r="53.114067"
       gradientTransform="matrix(-1.2670872,-1.3950228,1.277052,-1.1599353,389.29169,86.311192)"
       gradientUnits="userSpaceOnUse" />
    <linearGradient
       id="linearGradient39"
       inkscape:collect="always">
      <stop
         style="stop-color:#0b1425;stop-opacity:1;"
         offset="0"
         id="stop39" />
      <stop
         style="stop-color:#0d1f2b;stop-opacity:1;"
         offset="0.17684887"
         id="stop41" />
      <stop
         style="stop-color:#31485b;stop-opacity:1;"
         offset="0.58199358"
         id="stop43" />
      <stop
         style="stop-color:#59798b;stop-opacity:1;"
         offset="0.79421222"
         id="stop42" />
      <stop
         style="stop-color:#8c94a0;stop-opacity:1;"
         offset="1"
         id="stop40" />
    </linearGradient>
    <radialGradient
       inkscape:collect="always"
       xlink:href="#linearGradient45"
       id="radialGradient46"
       cx="173.80798"
       cy="-133.03687"
       fx="173.80798"
       fy="-133.03687"
       r="64.032288"
       gradientUnits="userSpaceOnUse"
       gradientTransform="matrix(1.2593812,1.2155917,-1.3398586,1.3881246,-319.17114,-15.726001)" />
    <linearGradient
       id="linearGradient45"
       inkscape:collect="always">
      <stop
         style="stop-color:#ffffff;stop-opacity:0;"
         offset="0"
         id="stop45" />
      <stop
         style="stop-color:#ffffff;stop-opacity:0;"
         offset="0.44694534"
         id="stop48" />
      <stop
         style="stop-color:#010115;stop-opacity:0;"
         offset="0.61736327"
         id="stop49" />
      <stop
         style="stop-color:#000008;stop-opacity:0.88;"
         offset="0.73633438"
         id="stop47" />
      <stop
         style="stop-color:#000000;stop-opacity:1;"
         offset="1"
         id="stop46" />
    </linearGradient>
    <filter
       inkscape:collect="always"
       style="color-interpolation-filters:sRGB"
       id="filter1"
       x="-0.039276181"
       y="-0.039276181"
       width="1.0785524"
       height="1.0785524">
      <feGaussianBlur
         inkscape:collect="always"
         stdDeviation="2.050824"
         id="feGaussianBlur1" />
    </filter>
  </defs>
  <g
     inkscape:label="Layer 1"
     inkscape:groupmode="layer"
     id="layer1"
     transform="translate(-15.193666,-7.2350792)">
    <g
       inkscape:groupmode="layer"
       id="layer6"
       inkscape:label="earth"
       transform="translate(-31.411582,114.42247)">
      <g
         inkscape:groupmode="layer"
         id="layer4"
         inkscape:label="water"
         style="display:inline">
        <circle
           style="display:inline;fill:url(#radialGradient24);stroke:none;stroke-width:0.201398;stroke-opacity:1"
           id="path1-3"
           cx="123.75429"
           cy="-32.662708"
           r="63.931591" />
      </g>
      <g
         inkscape:groupmode="layer"
         id="layer3"
         inkscape:label="land"
         style="display:inline">
        <path
           style="fill:url(#radialGradient20);stroke:none;stroke-width:0.2;stroke-opacity:1"
           d="m 59.910249,-37.124999 c 0,0 4.69932,5.175857 7.609745,7.037914 2.004644,1.282549 4.282503,2.177829 6.598044,2.727192 0.772492,0.183274 1.589579,0.06202 2.375297,0.175948 1.366153,0.198097 2.795757,0.296213 4.046802,0.879739 0.520948,0.242986 0.850116,0.797287 1.363593,1.055687 0.775405,0.390212 1.791056,0.21331 2.507258,0.703792 0.544383,0.372814 0.840769,1.022268 1.187649,1.583531 0.344732,0.557788 0.34445,1.380753 0.879739,1.759478 0.675505,0.47793 1.638737,0.377679 2.463271,0.307909 0.808851,-0.06844 1.525003,-0.797584 2.331307,-0.703791 0.639496,0.07439 1.068788,0.741393 1.671505,0.967713 2.140147,0.803625 4.531966,0.691395 6.730008,1.319609 0.754063,0.215517 1.415083,0.838788 2.199343,0.835752 0.28318,-0.0011 0.55621,-0.150749 0.79177,-0.307909 0.42269,-0.282005 1.07778,-0.592024 1.05569,-1.099674 -0.0203,-0.467146 -0.62653,-0.73808 -1.05569,-0.923726 -0.68961,-0.298314 -1.50371,-0.08768 -2.24334,-0.219935 -1.879946,-0.336151 -3.815159,-0.636713 -5.542354,-1.45157 -0.294434,-0.138908 -0.466808,-0.552094 -0.791765,-0.57183 -0.484738,-0.02944 -0.793302,0.760396 -1.275623,0.703791 -0.216485,-0.02541 -0.368879,-0.25469 -0.483856,-0.43987 -0.168917,-0.272055 -0.04349,-0.691437 -0.263922,-0.923726 -0.71495,-0.753415 -1.93798,-0.53817 -2.947125,-1.0117 -2.145613,-1.006806 -4.730257,-1.829387 -6.55406,-3.343009 -0.560177,-0.464906 -1.578517,-1.163461 -1.231635,-1.803467 0.321465,-0.593111 1.372799,-0.13444 2.023401,0.04399 1.266317,0.347291 2.189775,1.506977 3.430984,1.935427 2.116972,0.730752 4.402493,1.017799 6.642031,1.011701 0.846103,-0.0023 1.695076,-0.633067 2.507258,-0.395883 0.658046,0.192171 0.895785,1.127951 1.539544,1.363596 1.790431,0.655378 3.727362,0.349661 5.718312,-0.131961 0.91707,-0.221846 1.83316,-0.68992 2.77117,-0.791765 0.8718,-0.09466 1.6112,0.716446 2.46327,0.923726 1.20519,0.29318 2.54675,-0.02933 3.69491,0.43987 0.97733,0.399386 1.58321,1.424699 2.50725,1.935426 1.18957,0.657489 2.46971,1.333585 3.82687,1.407583 2.42879,0.132428 4.78083,-0.971025 7.0819,-1.759479 1.85058,-0.634095 3.56758,-1.606592 5.36641,-2.375296 1.91043,-0.816392 3.98343,-1.30205 5.7623,-2.375296 0.68637,-0.414107 1.84745,-1.539544 1.84745,-1.539544 0.88728,-0.7394 1.1246,-2.039465 1.89144,-2.903141 0.9261,-1.043047 1.93193,-2.126923 3.21105,-2.683203 1.40925,-0.612871 3.19437,0.103779 4.57464,-0.571831 3.57794,-1.751321 8.44505,-8.455781 8.44505,-8.455781 l -8.83339,-6.842766 c 0,0 -4.19162,6.141073 -6.09628,9.331045 -1.11307,1.864197 -1.2909,4.53823 -3.11035,5.72304 -1.70853,1.112585 -4.10369,0.929514 -6.09629,0.497658 -3.24774,-0.703883 -6.40352,-2.45878 -8.70897,-4.852144 -1.77566,-1.843373 -2.11539,-4.679661 -3.48359,-6.842767 -0.97995,-1.549297 -2.27339,-2.877433 -3.35918,-4.354486 -0.89949,-1.223624 -2.57127,-2.214319 -2.61269,-3.732419 -0.0493,-1.80607 1.76743,-3.165513 2.86152,-4.603319 2.18601,-2.872768 5.278,-4.999744 7.34042,-7.962492 2.71267,-3.896857 6.53026,-7.942551 6.46953,-12.690221 -0.0749,-5.852223 -8.37221,-15.433509 -8.37221,-15.433509 -38.233338,0.752897 -60.57326,31.073998 -62.725411,59.426393 z"
           id="path19"
           sodipodi:nodetypes="csssssssssssssssssssssssssssssssssssssssssssccsssssssssscc" />
      </g>
      <g
         inkscape:groupmode="layer"
         id="layer2"
         inkscape:label="clouds"
         style="display:inline">
        <path
           id="path39"
           style="fill:url(#radialGradient40);stroke:none;stroke-width:0.2;stroke-opacity:1"
           d="m 67.234077,-51.068869 c 0.244918,1.16715 0.166555,2.17266 0.06598,3.167063 -0.106255,1.050557 0.541243,-1.165188 0.505849,-1.781472 -0.02865,-0.498828 -0.788683,-2.419 -0.571829,-1.385591 z m -2.414421,25.595117 c 0,0 -0.135693,-0.196827 -0.155517,-0.311035 -0.434113,-2.500967 -0.06221,-5.684773 -0.06221,-5.536418 0,0 0.703316,2.020325 0.707604,3.157001 0.0033,0.877592 -0.489877,2.690452 -0.489877,2.690452 z m 7.187007,-19.832823 c 0.02431,2.052725 -0.332326,4.10545 -1.011698,6.158175 0,0 1.627141,-1.808989 1.803463,-2.947128 0.168773,-1.089411 -0.791765,-3.211047 -0.791765,-3.211047 z m 5.498372,-5.762294 c -0.215141,-0.348511 0.126127,-1.044525 0.307909,-1.407581 0.234308,-0.467962 0.328599,0.809133 0.219935,1.418578 -0.03685,0.206673 -0.417569,0.16764 -0.527844,-0.011 z m -1.099674,1.583531 c 0.242458,0.03739 0.736616,-0.570545 0.923726,-0.835752 0.237277,-0.336313 -1.014945,-0.261962 -1.231635,0.08797 -0.141918,0.229182 0.04149,0.706692 0.307909,0.747782 z m -0.527844,2.507258 c 0.421014,0.0569 1.034591,-0.970934 1.407583,-1.45157 0.345572,-0.445303 -1.461556,-0.06825 -1.803466,0.131961 -0.396294,0.232055 -0.05921,1.258102 0.395883,1.319609 z m -2.023401,3.914841 c -0.02053,0.116416 -0.184602,-0.190015 -0.175948,-0.307909 0.07365,-1.003288 1.422799,-2.731637 1.935427,-2.683205 0.06812,0.0064 -0.206123,0.977606 -0.351896,1.45157 -0.200827,0.652966 -1.336772,1.137904 -1.407583,1.539544 z m 0.131961,-14.339752 c 0,0 -1.277759,2.356374 -1.539544,3.650919 -0.25284,1.250313 0.0966,2.554906 0,3.826865 -0.08088,1.06487 -0.483857,3.167062 -0.483857,3.167062 0,0 0.634064,-0.400532 0.835752,-0.703792 0.544441,-0.818627 0.87974,-2.815166 0.87974,-2.815166 0,0 -0.558562,0.02792 -0.659805,-0.175948 -0.310034,-0.624293 0.791766,-1.935425 0.791766,-1.935425 0,0 -0.403747,-0.02417 -0.483857,-0.175948 -0.579339,-1.0976 0.899145,-2.366064 0.923727,-3.606932 0.0083,-0.419783 -0.263922,-1.231635 -0.263922,-1.231635 z m -1.803466,1.539544 c 0,0 -0.09356,-3.267295 0.483857,-4.750594 0.418069,-1.073958 2.067387,-2.771177 2.067387,-2.771177 -1.023186,2.61092 -2.095326,5.251212 -2.551244,7.521771 z m -2.551242,6.642031 -0.04399,-0.219935 c 0,0 -0.08666,-2.990826 -0.08797,-4.486669 -7.18e-4,-0.821221 -0.114631,-1.657514 0.04399,-2.463271 0.164088,-0.833532 0.484244,-1.19221 0.659804,-2.023401 0.133461,-0.631868 0.339063,-1.361813 0.52784,-1.979414 0.296227,-0.969136 1.407581,-2.903138 1.407581,-2.903138 0,0 -0.487354,2.305633 -0.615818,3.474969 -0.07372,0.671067 -0.02158,1.351569 -0.08797,2.023401 -0.122557,1.240257 -0.435836,2.45605 -0.571828,3.694906 -0.147504,1.343727 0.07444,2.264759 -0.527844,3.474969 -0.189899,0.381576 -0.703795,1.407583 -0.703795,1.407583 z m -0.175948,3.914841 c 0,0 -0.245864,2.523939 -0.395883,3.782878 -0.106161,0.890889 0.213311,2.925938 -0.08797,2.243336 -0.07227,-0.163739 -0.312786,-0.433934 -0.43987,-0.307909 -0.678423,0.672773 0.15668,2.520535 0.08797,3.738893 -0.02071,0.367146 0.08797,1.099674 0.08797,1.099674 0,0 0.478844,-0.916572 0.615818,-1.231635 0.654036,-1.50439 0.645225,-2.802337 0.659804,-4.442685 0.01455,-1.636936 -0.527839,-4.882552 -0.527839,-4.882552 z m -0.778934,30.936766 c -0.443764,-1.529054 -0.776018,-3.48751 -0.311033,-4.665522 0.07498,-0.18996 0.429294,-0.0918 0.559863,-0.248828 0.627027,-0.754104 -0.04976,-3.511928 0.684276,-2.86152 0.431623,0.382449 0.639138,2.041068 0.637621,3.188107 -0.0011,0.850161 -0.315711,1.820019 -0.450999,2.659347 -0.06807,0.422323 0.66051,0.77026 0.622069,1.492967 -0.01604,0.301489 -0.574636,-0.306983 -0.870897,-0.248827 -0.362275,0.07111 -0.768,1.038834 -0.8709,0.684276 z m 62.331383,-21.959059 c 0.43935,1.730661 -2.69201,-3.004808 -3.60801,-4.852144 -0.68389,-1.379231 0.66607,-3.091944 0.37325,-4.603313 -0.24694,-1.274558 -1.40504,-2.229771 -1.7418,-3.483591 -0.52811,-1.966212 -1.98769,-4.855939 -0.37324,-6.096283 0.51998,-0.399488 1.23893,0.813076 1.86621,0.622069 1.10302,-0.335868 1.37151,-1.855838 2.11503,-2.737106 0.90846,-1.076767 1.45449,-3.180936 2.86152,-3.110347 1.44967,0.07273 2.39957,2.047824 2.6127,3.483589 0.35637,2.400741 -2.90603,4.451943 -2.48828,6.842768 0.223,1.276269 3.16705,1.882367 2.48828,2.985934 -0.57975,0.942573 -2.25571,-1.262225 -3.23477,-0.746485 -1.10381,0.581452 -1.0815,2.269473 -1.36855,3.483592 -0.59983,2.537088 -0.21905,5.388095 0.49766,8.211317 z m 5.53642,16.018294 c -0.0568,-0.0052 -0.0108,-0.115079 0,-0.171069 0.32542,-1.686694 -1.15783,-3.847691 -0.71538,-3.421383 0.5697,0.548919 0.88395,1.376395 0.97976,2.161692 0.0587,0.481424 0.21859,1.475008 -0.26438,1.43076 z m -2.6127,-3.452486 -0.52876,-0.653173 c 0,0 -0.7069,-1.469929 -0.902,-2.519382 -0.14422,-0.775754 -0.21051,-3.078297 0.12442,-2.363864 0.1001,0.21353 1.99606,6.388434 1.30634,5.536419 z m -32.76751,15.2484821 a 0.28770721,0.75425947 0 0 1 -0.28771,0.7542595 0.28770721,0.75425947 0 0 1 -0.2877,-0.7542595 0.28770721,0.75425947 0 0 1 0.2877,-0.7542594 0.28770721,0.75425947 0 0 1 0.28771,0.7542594 z m 18.95757,6.648369 c 0.21735,0.7059207 0.77751,1.44300553 1.30635,2.17724372 0.49465,0.68676594 -0.0361,-1.02506165 -0.24883,-1.43076022 -0.25436,-0.4852005 -1.30657,-1.5553709 -1.05752,-0.7464835 z m 6.78055,0.6531731 a 0.52875918,0.34213832 0 0 1 -0.52876,0.3421383 0.52875918,0.34213832 0 0 1 -0.52876,-0.3421383 0.52875918,0.34213832 0 0 1 0.52876,-0.3421383 0.52875918,0.34213832 0 0 1 0.52876,0.3421383 z m -17.29353,-4.3233841 a 0.74648356,0.3110348 0 0 1 -0.74649,0.3110348 0.74648356,0.3110348 0 0 1 -0.74648,-0.3110348 0.74648356,0.3110348 0 0 1 0.74648,-0.3110348 0.74648356,0.3110348 0 0 1 0.74649,0.3110348 z m 6.6049,8.4835467 c -0.93775,-1.1504746 -1.51529,0.3081811 -2.24334,0.1319609 -0.36416,-0.088144 -0.7185,-0.2920452 -0.96771,-0.5718306 -0.67234,-0.7548378 -0.38405,-2.22035338 -1.23164,-2.7711789 -0.11065,-0.0719067 -0.31019,-0.10034952 -0.39588,0 -0.79052,0.9257205 1.60455,4.0738827 0.70379,3.2550354 -0.7488,-0.6807085 -1.26168,-1.1331667 -1.7155,-1.6715046 -0.68987,-0.81836546 -1.1988,-1.11488561 -1.93542,-1.89143956 -0.47437,-0.50008634 -1.31717,-0.93948634 -1.27562,-1.62751774 0.0338,-0.5588451 0.70046,-0.9118043 1.18765,-1.187648 0.26304,-0.1489288 0.5866,-0.2936686 0.87974,-0.2199349 0.63416,0.1595103 0.96215,0.8859332 1.45157,1.3196089 0.319,0.2826671 0.55473,0.9411316 0.96771,0.8357524 0.12139,-0.030973 0.13085,-0.2266258 0.13196,-0.3518957 0.004,-0.4822804 -0.47922,-0.8813189 -0.48386,-1.3635961 -0.003,-0.3245495 0.53302,-0.6899107 0.30791,-0.9237263 -0.25423,-0.264066 -1.05568,0.3079089 -1.05568,0.3079089 0,0 0.0153,-0.6822557 0.21993,-0.9237263 0.19542,-0.2306032 0.55225,-0.4567667 0.83575,-0.3518958 0.246,0.090999 0.3519,0.7037916 0.3519,0.7037916 0,0 0.78096,-0.4105962 1.14366,-0.2639218 0.59948,0.2424236 0.81956,1.0255322 1.05569,1.6275176 0.12499,0.3186576 0.21154,0.6712599 0.17595,1.0117003 -0.0328,0.3141249 -0.48651,0.5940248 -0.3519,0.8797394 0.16403,0.34816151 0.77279,0.55505728 1.09967,0.35189568 0.25185,-0.15652938 0.01,-0.60951748 0.13197,-0.87973938 0.14997,-0.3318948 0.37357,-0.6821235 0.70379,-0.8357523 0.34564,-0.1608064 0.80598,-0.1769273 1.14366,0 0.20535,0.1075947 0.44652,0.3455987 0.39588,0.5718305 -0.0703,0.3141285 -0.66787,0.2091953 -0.83575,0.4838567 -0.29861,0.48855137 0.1446,1.19228265 -0.088,1.71549167 -0.1095,0.24631911 -0.51476,0.30837659 -0.57183,0.57183056 -0.053,0.24487237 0.21922,0.45726167 0.26393,0.70379147 0.0811,0.4472374 0.2872,1.7159156 2e-5,1.363596 z M 94.725933,21.927503 c -2.95728,-0.8439 -7.963262,-4.68924 -7.983635,-4.706606 0,0 -4.046213,-3.305216 -5.960234,-5.080494 -0.762042,-0.706804 -2.36007,-1.45199 -1.297615,-1.275622 0.999456,0.16591 1.860004,0.826942 2.705198,1.385589 1.71961,1.136608 3.108273,2.713144 4.750591,3.958827 1.503543,1.140423 3.148715,2.084417 4.66262,3.211049 1.070977,0.797009 4.406825,2.873592 3.123075,2.507257 z m -2.507257,-5.696312 c -1.477526,-0.348705 1.046962,1.06922 1.715492,1.363596 0.767732,0.338057 3.846124,1.068739 2.485263,0.395882 -1.435466,-0.709744 -2.878943,-1.447523 -4.200755,-1.759478 z m 19.992074,9.281249 c -0.01,-0.04532 0.044,-0.13196 0.044,-0.13196 0,0 1.26902,-1.38436 1.93542,-2.045394 0.41247,-0.409144 0.735,-0.974937 1.27563,-1.187648 0.62081,-0.244258 1.42934,-0.343236 2.0014,0 0.21374,0.128243 0.29639,0.416803 0.3519,0.659804 0.16013,0.700995 0.28242,1.53906 -0.088,2.155361 -0.23189,0.385814 -0.72822,0.575651 -1.16566,0.681798 -0.67064,0.162733 -1.38404,-0.206302 -2.06739,-0.109967 -0.5992,0.08447 -1.12838,0.740363 -1.71549,0.593824 -0.27178,-0.06783 -0.51252,-0.342045 -0.57181,-0.615818 z m 38.67224,-29.5869963 c -0.54197,0.3912984 -0.80869,1.8351056 -0.80869,1.8351056 0,0 0.80297,-0.6175856 1.08862,-1.0264148 0.18089,-0.2589024 0.55943,-0.6157712 0.37325,-0.8708975 -0.12893,-0.1766706 -0.47586,-0.065821 -0.65318,0.062207 z m -23.89262,9.2650185 c 0.21705,-1.500407 1.32532,-2.2581242 2.19935,-3.2110487 0,0 -0.13618,1.6601108 -0.61582,2.2873224 -0.37121,0.4854167 -1.58353,0.9237263 -1.58353,0.9237263 z m -9.72112,5.9822268 c 0.0875,0.03281 2.91971,-0.984229 3.16706,-2.0234001 0.26448,-1.111115 1.70468,-1.5206152 2.55125,-2.2873221 0,0 1.31629,-2.3739655 2.33131,-2.1113744 0.65988,0.170714 0.15967,1.4723359 0.6598,1.9354265 0.3888,0.360008 1.53955,0.3958828 1.53955,0.3958828 0,0 -2.15389,2.3437068 -3.56295,2.9911133 -2.05235,0.942971 -6.68602,1.099674 -6.68602,1.099674 z m -7.78499,-0.255367 c 0.52127,-0.9738463 3.01032,-0.704887 5.00766,-0.746483 0,0 -2.0087,1.426893 -3.17256,1.461863 -0.65624,0.01972 -2.63154,0.772535 -1.8351,-0.71538 z M 96.918451,-0.62206965 C 96.881929,-1.1256936 95.992504,-1.13128 95.48769,-1.1197254 c -0.446543,0.010221 -0.978366,0.13867243 -1.24414,0.49765575 -0.43957,0.59372953 -0.744849,1.72448975 -0.186621,2.20834725 0.313574,0.2717978 0.80167,-0.2253512 1.213038,-0.2799314 0.555379,-0.073688 1.176775,-0.30930118 1.679588,-0.062207 0.400222,0.1966786 0.777587,1.0886219 0.777587,1.0886219 0.154463,0.2162479 0.542533,0.4503039 0.746482,0.2799313 C 98.918423,2.2411206 98.386435,1.4366087 98.16259,0.90200098 98.030389,0.58626561 97.884433,0.20119324 97.571625,0.06220696 c -0.39134,-0.1738797 -0.910887,0.38051907 -1.275244,0.15551742 -0.131139,-0.0809826 -0.211845,-0.29198151 -0.155517,-0.43544876 0.106767,-0.27193617 0.798717,-0.11296575 0.777587,-0.40434527 z m -5.256488,1.11972536 c -0.03219,0.0406378 -0.1043,0.007995 -0.155519,0 -1.075547,-0.16789418 -2.296473,-0.27240212 -3.110347,-0.99531142 -0.485633,-0.43135441 -0.845199,-1.12438269 -0.808691,-1.77289849 0.03398,-0.6035873 0.835635,-0.9585403 0.933104,-1.5551742 0.08558,-0.523844 -0.534659,-1.0605309 -0.342138,-1.555174 0.261861,-0.6727976 1.108925,-0.9606485 1.772898,-1.2441393 0.835886,-0.3568906 1.915785,-0.4998185 2.674901,0 0.495933,0.3265329 0.05254,0.7133101 0.37324,1.2130357 0.412135,0.6422062 1.479082,0.6936236 1.835107,1.3685533 0.237224,0.4497141 0.41953,1.1623525 0.06221,1.5240707 -0.510241,0.5165208 -1.448599,-0.1095961 -2.14614,-0.3110349 -0.509073,-0.1470126 -1.173298,-0.080769 -1.399657,-0.5598626 -0.201704,-0.4269116 0.490974,-1.0145941 0.217725,-1.3996567 -0.231838,-0.326706 -0.861683,-0.4584018 -1.181933,-0.2177245 -0.749656,0.5633888 -0.859113,2.0617906 -0.279932,2.7993135 0.601621,0.7660975 0.87659,0.7996293 1.181932,1.43076013 0.157713,0.32598573 0.598078,0.99136257 0.37324,1.27524278 z M 92.890709,23.234876 c 7.022789,3.731502 13.903401,6.180317 21.236331,7.348034 5.51921,0.642745 12.29657,0.974115 18.30041,0.136002 0,0 -1.78326,-1.721147 -2.92982,-2.03941 -2.54871,-0.70747 -5.4669,1.522958 -7.91765,0.527844 -0.73108,-0.29685 -1.78494,-0.996572 -1.58353,-1.759479 0.33139,-1.255248 2.84018,-0.25443 3.6949,-1.231635 0.82543,-0.943727 0.006,-2.65307 0.70379,-3.694905 1.0136,-1.513927 2.92704,-2.213477 4.57465,-2.991114 1.77818,-0.839259 3.72524,-1.272745 5.63033,-1.759478 1.73848,-0.444166 3.62678,-0.354519 5.27843,-1.055688 0.85359,-0.362373 1.36847,-1.708576 2.28733,-1.58353 0.90776,0.123536 0.8492,2.007986 1.75948,2.111374 1.82986,0.207831 2.91228,-2.255737 4.39869,-3.343009 1.56284,-1.143177 4.75059,-3.34301 4.75059,-3.34301 l 2.28733,-3.5189573 c 0.78943,-1.2145099 -2.42213,-2.8657011 -1.58353,-4.046801 0.91738,-1.2920608 3.16844,0.087514 4.75059,0.1759479 1.80742,0.1010256 3.41365,-0.1574191 6.86197,-3.87085307 1.11173,-1.19720303 -0.19539,-1.77813273 -1.05569,-3.16706163 -1.00548,-1.6233115 -3.17862,-2.4431597 -3.87085,-4.2227488 -0.46776,-1.2025126 0,-3.8708531 0,-3.8708531 0,0 -3.02162,3.4483376 -4.3987,5.278436 -1.32038,1.7547432 -3.69491,5.4543839 -3.69491,5.4543839 0.0552,-1.6607476 0.24225,-3.5062153 0.87974,-5.9822275 -1.17356,1.3912063 -2.70768,1.7006992 -4.22274,2.0673875 0,0 1.72535,-2.6076401 2.46326,-3.4749704 1.2096,-1.4217365 2.92832,-2.3763765 4.0468,-3.8708535 1.14736,-1.533075 2.63922,-5.102488 2.63922,-5.102488 l -1.58353,-4.398696 c 0,0 -2.87571,7.344813 -5.10249,10.556872 -2.03254,2.9318648 -5.02148,5.0737405 -7.38981,7.7417059 -2.019,2.2744414 -3.39418,5.185555 -5.80628,7.0379144 -1.7901,1.3746973 -6.15817,2.8151659 -6.15817,2.8151659 0,0 -1.07852,-2.7298969 -0.70379,-4.0468008 0.19329,-0.6792654 0.82697,-1.18146784 1.40758,-1.58353082 0.67158,-0.46506212 1.69384,-0.31841409 2.28732,-0.8797393 0.9345,-0.88386628 1.45764,-2.23885338 1.58353,-3.51895738 0.15316,-1.5574453 -1.11367,-3.0107606 -1.05569,-4.5746444 0.066,-1.7796305 1.58353,-5.1024885 1.58353,-5.1024885 0.0844,-1.11382 -0.0494,-3.243789 -0.35189,-4.222748 -0.32526,-1.052574 -1.35391,2.64611 -1.45157,2.0234 -0.49265,-3.141156 -0.43615,-4.09191 -0.83575,-5.36641 -0.54162,-1.727449 -0.84957,4.334852 -1.23164,6.510071 -0.38031,2.165225 -0.74871,4.333239 -1.05569,6.5100713 -0.20621,1.4622829 0.0283,3.0306775 -0.52784,4.3986966 -0.47271,1.1627334 -1.53494,1.986465 -2.28732,2.99111363 C 128.84368,0.169421 127.5622,1.9354265 127.5622,1.9354265 l -0.52784,-1.05568717 c -0.27825,-0.55649579 -1.82173,1.76676927 -3.82687,3.73889227 -0.9523,0.9366238 -1.21113,2.3857906 -1.97941,2.7711787 -0.57904,0.2904601 -1.46357,-0.3446165 -1.93543,-0.1759479 -1.49153,0.5331555 -1.49712,-0.065835 -0.52784,-1.4075828 0,0 0.80154,-0.081712 1.05569,-0.3518958 0.62383,-0.6631876 0.58549,-1.7364546 0.70379,-2.639218 0.0686,-0.523369 -0.3519,-2.46327004 -0.3519,-2.46327004 0.43012,0.36866944 -0.99904,2.26884584 -2.11137,2.63921804 -1.11291,0.3705656 -1.27008,1.9977845 -2.11138,2.8151658 -0.87531,0.8504287 -1.98478,1.4209359 -2.99111,2.1113744 -0.52311,0.3589006 -0.95578,0.9641787 -1.58353,1.0556873 -0.78937,0.115068 -1.6216,-0.264279 -2.28732,-0.7037917 -0.8335,-0.5502819 -1.93543,-2.2873221 -1.93543,-2.2873221 0,0 -2.11928,-0.128987 -3.16706,0 -0.96002,0.1181841 -1.85368,0.8093373 -2.81517,0.7037914 -0.91252,-0.1001703 -2.463266,-1.2316351 -2.463266,-1.2316351 0,0 1.243999,0.2797426 1.759476,0 1.22961,-0.6672909 1.66301,-2.2669788 2.28732,-3.5189573 C 103.05989,1.3210975 103.45734,0 103.45734,0 l -2.99111,1.2316351 1.58353,-2.11137443 -0.17595,-2.81516577 c -0.39977,0.6750661 -0.9523,1.2584742 -1.935424,1.5835307 0.09369,-1.2101026 0.07689,-3.3227609 -0.527843,-3.6949052 l -2.287321,-1.4075828 -3.34301,-2.1113744 1.407583,-0.6598046 -0.527843,-1.4515696 c 0.703791,-1.332813 1.407583,-0.400542 2.111374,1.055687 1.324616,-0.133869 2.544882,-0.02426 3.518954,0.6598046 -0.290746,-0.9052326 -0.740247,-1.7877856 -0.483857,-2.7711796 l -1.451565,-0.703791 c -0.563768,-1.426498 -0.534159,-2.73432 -0.527844,-4.046801 0.361083,-1.01258 1.110202,-1.443106 1.935424,-1.759478 -0.134062,1.797185 -0.96812,3.944368 0.175948,5.102488 1.106564,0.402367 1.867304,1.582851 2.507254,3.0351 0.49613,-1.729884 0.85491,-5.643256 0.30791,-5.674318 -2.42785,-0.13787 -1.37565,-3.423477 -3.167057,-4.398697 -1.145763,-0.623741 -0.938389,1.655265 -1.407583,1.583531 -1.058959,-0.594509 0.832911,-2.249453 -0.04178,-2.908476 -0.920798,-0.693765 -1.069304,-0.476888 -1.541755,-1.138325 -1.327816,1.27387 -2.805962,2.24708 -3.694905,4.398696 -0.582224,1.213675 -1.714442,1.835048 -0.879739,4.574645 0.206981,0.869395 0.673866,1.652155 1.58353,2.287322 l -1.055687,0.527844 c 0,0 -0.762852,-1.471562 -1.627517,-1.583531 -0.641286,-0.08304 -1.759479,0.703792 -1.759479,0.703792 0,0 -1.49176,-2.289829 -2.683205,-2.375296 -1.224991,-0.08787 -3.079088,2.0234 -3.079088,2.0234 -1.381846,0.716795 -3.068044,1.405921 -0.703791,2.46327 l -0.703792,1.5835306 c -0.906124,-0.2082124 -1.438809,-0.7898638 -1.759478,-1.5835306 -1.611056,0.4447278 -2.611084,1.432591 -3.167062,2.8151657 0.429661,1.5148355 0.150826,2.5868612 -0.351896,3.5189573 -0.694122,0.4582596 -1.476644,-0.055879 -2.287322,-0.8797393 -0.572951,-0.582268 -0.548462,-1.424664 -0.879739,-2.1113744 -0.844018,-1.7495793 -2.074427,-3.3067433 -2.815166,-5.1024883 -0.162817,-0.394711 0.07435,-1.20678 -0.351896,-1.231635 -0.761148,-0.04438 -0.764244,1.357732 -0.879739,2.111374 -0.294388,1.9209815 0.175302,3.8951159 0.527843,5.8062801 0.353663,1.9172465 2.630798,7.2747595 1.583531,5.63033177 -1.852556,-2.90889957 -3.631404,-4.28719577 -4.794579,-6.77399287 0,0 -1.028278,-1.7545562 -1.275618,-2.727192 -0.238935,-0.939584 -1.039081,-2.461654 -0.175948,-2.90314 0.371059,-0.189794 0.902884,1.203475 0.967713,0.791766 0.25744,-1.634912 0.459798,-2.724019 0.395883,-4.002814 -0.05238,-1.048047 -0.875243,-1.808407 -0.586925,-2.817377 0.142546,-0.498839 0.763927,-0.771392 0.894834,-1.273411 0.179004,-0.686465 -0.614666,-1.315418 -0.659805,-2.023401 -0.03376,-0.52946 0.120954,-1.324421 0.131961,-1.847452 0.01329,-0.631532 0.404197,1.203373 0.703791,1.759478 0.194841,0.361662 0.524423,1.381281 0.703792,1.011701 0.440109,-0.906821 0.389711,-1.428689 0.527844,-2.155362 0.0608,-0.319829 -0.320351,-1.355697 0.13196,-0.967713 0.314184,0.269501 0.77756,0.549316 0.910386,0.15727 0.291551,-0.860533 0.808596,-1.530969 0.409223,-1.916749 -1.91656,-1.851325 0.0079,-2.446017 0.483857,-3.386996 0.441469,-0.872802 0.455865,-1.902552 0.659805,-2.859153 0.257706,-1.208793 0.252627,-2.537987 0.923726,-3.606931 0.08433,-0.13432 -0.289136,-0.381218 -0.395883,-0.263922 -0.926679,1.018255 -1.262594,3.614277 -1.275622,3.650918 0,0 -0.226459,1.467035 -0.703791,1.979414 -0.174545,0.187361 -0.657288,0.559716 -0.703792,0.307908 -0.265911,-1.439841 0.660786,-5.032997 -0.09575,-4.042151 -0.107434,0.140709 -0.673527,1.261747 -0.783989,1.139012 0,0 -0.17264,-2.651561 -0.395883,-3.958827 -0.18797,-1.100715 -0.08785,-1.096578 -0.224126,-3.15395 -0.03549,-0.535755 0.680263,-0.607223 0.75197,-1.024812 0.163286,-0.950903 -0.568284,-1.65492 -0.656908,-2.615662 -0.08671,-0.939994 0.02328,-1.915114 0.307909,-2.815166 0.247336,-0.782128 0.872877,-1.481451 1.008803,-2.310879 0.218975,-1.3362 -0.111027,-2.714373 -0.351895,-4.0468 -0.194908,-1.078184 -0.799504,-2.074344 -0.87974,-3.167062 -0.10388,-1.414728 -0.102705,-2.952058 0.527844,-4.222749 0.400972,-0.808044 1.377412,-1.143403 1.857667,-1.906992 0.585048,-0.930205 0.649718,-2.116706 1.133447,-3.107522 1.153025,-2.361725 2.597232,-4.586977 4.178761,-6.686019 1.305751,-1.733024 2.745771,-3.955777 4.727952,-4.838566 0.482185,-0.214747 0.693225,0.106131 1.210289,0 0.98446,-0.202068 2.771179,-1.187649 2.771179,-1.187649 0,0 2.701888,-1.152764 3.826866,-2.067387 0.476332,-0.387265 0.933963,-1.042972 1.539544,-1.143661 0.590362,-0.09816 1.006539,0.0894 1.187648,0.659804 0.164892,0.51933 -0.858156,0.988064 -0.659805,1.495557 0.133864,0.342499 0.644318,0.455832 1.011701,0.43987 0.983197,-0.04272 2.595231,-1.407583 2.595231,-1.407583 0,0 0.197336,-1.537077 0.659804,-2.111374 0.836093,-1.03827 2.417606,-1.167604 3.474971,-1.979414 1.291131,-0.991287 4.04549,-1.967641 3.43098,-3.47497 -0.31556,-0.774026 -1.686874,-0.204207 -2.507254,-0.04399 -1.173418,0.229165 -2.137882,1.122664 -3.299023,1.407583 -0.91413,0.224307 -2.112458,0.846152 -2.815166,0.219934 -0.295757,-0.263564 -0.224085,-0.834797 -0.04399,-1.187648 0.970575,-1.901596 3.747286,-2.121754 5.322422,-3.562944 0.323104,-0.295628 0.824756,-1.022697 0.824756,-1.022697 -8.060055,3.603626 -15.056234,8.434802 -20.95979,14.526696 -3.080013,3.265283 -5.662042,6.810681 -8.082605,10.446904 -4.339733,7.115319 -7.487584,14.780737 -8.780898,23.302096 -2.246157,9.613173 0.104467,24.060336 2.581485,31.184011 1.363537,4.1068282 3.269788,8.0456737 5.502977,11.88332404 C 72.895548,6.7062792 80.804841,16.573777 92.890709,23.234876 Z" />
      </g>
      <g
         inkscape:groupmode="layer"
         id="layer5"
         inkscape:label="shade"
         style="display:inline">
        <circle
           style="display:inline;fill:url(#radialGradient46);stroke:#ffffff;stroke-width:0.2;stroke-opacity:1;stroke-dasharray:none;filter:url(#filter1)"
           id="path1"
           cx="123.75429"
           cy="-32.66309"
           r="63.931591"
           inkscape:label="path1" />
      </g>
    </g>
  </g>
</svg>
