<?xml version="1.0" encoding="UTF-8" standalone="no" ?>
<svg x="0" y="0" viewBox="0 0 270.40414 32.605999" version="1.1" xmlns:xlink="http://www.w3.org/1999/xlink" xmlns="http://www.w3.org/2000/svg" xmlns:svg="http://www.w3.org/2000/svg">
	<defs>
		<linearGradient xlink:href="#linearGradient71" id="linearGradient72" x1="-310.71576" y1="232.23962" x2="-40.310108" y2="232.23962" gradientUnits="userSpaceOnUse" gradientTransform="matrix(0.99999445,0,0,0.99999445,311.01404,-215.73534)" />
		<linearGradient id="linearGradient71">
			<stop style="stop-color:#a4413b;stop-opacity:1;" offset="0" />
			<stop style="stop-color:#9d3737;stop-opacity:1;" offset="0.46176472" />
			<stop style="stop-color:#a34847;stop-opacity:1;" offset="0.56606239" />
			<stop style="stop-color:#ae4f4b;stop-opacity:1;" offset="0.71176469" />
			<stop style="stop-color:#b0514b;stop-opacity:1;" offset="1" />
		</linearGradient>
		<linearGradient xlink:href="#linearGradient21" id="linearGradient67" x1="-175.50507" y1="222.92964" x2="-180.17101" y2="246.19505" gradientUnits="userSpaceOnUse" gradientTransform="matrix(0.99999445,0,0,0.99999445,311.01404,-215.73534)" />
		<linearGradient id="linearGradient21">
			<stop style="stop-color:#a03e3f;stop-opacity:1;" offset="0" />
			<stop style="stop-color:#b4504a;stop-opacity:1;" offset="1" />
		</linearGradient>
		<filter id="blurFilter" x="0" y="-50%" width="100%" height="200%">
			<feGaussianBlur in="SourceGraphic" stdDeviation="2" />
		</filter>
		<clipPath id="clipMountainBlurPath">
-				<path style="display:inline;fill:url(#linearGradient72);stroke:none;stroke-width:0.199999;stroke-opacity:1" d="m 270.70415,31.100514 c 0.006,-0.053 -16.13656,-1.386873 -23.38969,-2.985924 -3.99282,-0.880265 -11.76038,-8.007085 -21.77986,-10.87419 -1.68215,-0.481347 -3.4274,-0.534927 -5.0934,-1.069474 -2.83104,-0.908445 -4.90722,-3.49697 -7.71362,-4.478885 -2.13686,-0.747656 -4.51803,-0.462457 -6.71831,-0.995304 -4.00229,-0.9692446 -11.69485,-3.9812179 -11.69485,-3.9812179 0,0 -11.33851,-3.6134999 -17.16902,-4.7277037 -5.24504,-1.00232448 -10.59209,-2.01797884 -15.9249,-1.74179038 -4.32154,0.22381876 -8.53622,1.52445158 -12.69015,2.73709488 -2.97268,0.8678051 -5.69207,2.5358359 -8.70892,3.234742 -3.24822,0.7525058 -6.68405,0.3390781 -9.95307,0.9953045 -3.06113,0.6144966 -5.85331,2.4045766 -8.95775,2.7370948 -3.9723,0.4254678 -7.95865,-1.2778529 -11.94366,-0.9953045 -2.97039,0.2106088 -5.73216,2.0703883 -8.70893,1.9906083 C 96.636346,10.848466 93.321885,8.8392074 89.807304,7.9596522 84.457414,6.6207997 79.148393,4.5031614 73.633584,4.4760816 70.331532,4.4598817 67.22662,6.2880315 63.929358,6.4666905 59.520372,6.7055792 55.113427,4.6037709 50.741551,5.2225574 44.915983,6.0471028 39.799572,9.5518034 34.319012,11.692041 29.182531,13.69791 18.891768,17.663878 18.891768,17.663878 17.488276,18.207165 -1.1202012,25.851933 0.38674045,26.28742 10.291355,29.149724 20.979186,29.783841 30.337794,30.851685 c 11.538216,1.316543 23.222841,0.570017 34.835697,0.497647 17.510883,-0.109119 34.595058,-1.70983 52.514879,-1.404982 8.85147,0.150579 18.97816,0.707466 27.73919,1.552041 3.89069,0.375068 6.7044,1.424322 11.47103,1.299333 5.09093,-0.133509 11.95359,-2.101288 17.01207,-2.690525 15.25926,-1.77749 30.67156,2.054289 46.03289,2.239448 16.92405,0.203988 50.7606,-1.244133 50.7606,-1.244133 z" />
			<path style="display:inline;fill:#be534d;fill-opacity:1;stroke:none;stroke-width:0.199999;stroke-opacity:1" d="M 73.882413,4.5382912 C 68.262704,10.246079 61.153573,15.723299 53.727464,20.774211 68.624012,18.018716 83.503179,15.098082 98.236297,10.790056 92.876257,8.8696872 79.522511,4.5374812 73.882413,4.5382912 Z" />
			<path style="display:inline;fill:#c55f5a;fill-opacity:1;stroke:none;stroke-width:0.199999;stroke-opacity:1" d="m 96.650036,30.229618 c 0,0 8.014934,-8.91263 4.852114,-8.335683 -7.877927,1.437042 -20.236408,8.90545 -30.73007,7.713617 -7.875896,-0.894525 -24.342185,0.323758 -22.892033,-0.746476 1.547981,-1.142424 13.018898,-3.793999 12.56574,-3.732399 -9.621296,1.307862 -19.304793,3.433251 -28.926089,5.816317 -0.0462,0.600657 24.275185,0.788276 36.390878,0.342138 9.582297,-0.352858 28.73946,-1.057514 28.73946,-1.057514 z" />
			<path style="display:inline;fill:#a1443d;fill-opacity:1;stroke:none;stroke-width:0.199999;stroke-opacity:1" d="m 174.53272,21.769515 c 5.745,-1.082914 10.03649,-6.423704 18.16432,-7.838036 1.33397,-0.232119 3.00771,-1.528832 4.01233,-3.732389 0.51151,-1.121924 -2.57332,-1.7928102 -3.76349,-2.1150285 -1.35038,-0.3655979 -2.56126,0.4682174 -3.35916,1.6173711 -0.83023,1.1957434 -2.87374,2.3725164 -4.7277,3.6079794 -3.53822,2.357857 -7.50543,4.062238 -11.19719,6.593904 -0.56614,0.388237 0.19631,1.993359 0.87089,1.866199 z" />
			<path style="display:inline;fill:url(#linearGradient67);stroke:none;stroke-width:0.199999;stroke-opacity:1" d="m 117.58256,29.94969 c 6.46964,-6.407205 9.63,-14.609019 12.41022,-22.8609329 0,0 8.9009,-0.0793 12.06808,-1.4929617 2.70048,-1.2053934 6.38285,-2.708205 6.34508,-2.5193661 -0.006,9.4826267 0.29768,19.1414737 -3.11033,28.3973217 -9.20658,-0.947044 -18.47537,-1.285402 -27.71305,-1.524061 z" />
			<path style="display:inline;fill:#c35950;fill-opacity:1;stroke:none;stroke-width:0.199999;stroke-opacity:1" d="m 242.46235,26.123981 c 1.41422,0.952115 -2.57025,4.477775 -3.85681,3.359161 -5.97621,-5.196061 -7.94937,-7.574297 -15.30284,-9.455407 -2.46669,-0.631017 3.85492,4.020688 4.16968,5.34352 0.2869,1.205754 -2.37757,-0.704616 -3.54761,-1.113474 -2.59113,-0.905444 -6.24022,-3.728219 -7.34038,-3.856808 -2.94298,-0.343968 6.73826,5.969167 5.97184,6.469484 -0.75589,0.493437 -6.49345,-1.623221 -6.84274,-1.8662 0,0 -8.58363,-4.300736 -11.44601,-7.962445 -0.57396,-0.734236 -0.22794,-2.083839 -0.99531,-2.612676 -0.92198,-0.635386 -2.47814,-0.691076 -3.35916,0 -1.13097,0.887135 1.27406,2.730645 -1.49295,4.727704 -3.80525,2.746405 -8.31725,4.393175 -12.69015,6.096246 -3.19063,1.242623 -6.40993,2.090788 -9.82864,2.282137 -2.27396,0.12728 -4.67092,0.384678 -6.71832,-0.540347 -1.57692,-0.712456 -4.42628,-2.022808 -3.7324,-3.60799 1.12554,-2.571285 1.98859,-3.61999 1.11972,-5.100941 -0.40313,-0.687107 -1.109,-1.740491 -1.86619,-1.492952 -5.53084,1.80812 -15.64084,7.709287 -15.67608,7.21596 0,0 9.27629,-9.626617 14.55635,-13.685454 4.29726,-3.3033416 13.50196,-8.3645835 13.50196,-8.3645835 0,0 11.43464,2.7620247 17.10369,4.7264138 3.69024,1.2787029 7.7817,3.0260732 11.8708,4.0025677 2.15248,0.514027 4.82796,0.336248 6.89426,1.128564 2.83623,1.087543 4.63569,3.339241 7.49369,4.368255 1.81008,0.651717 3.79985,0.572237 5.59105,1.230343 5.81614,2.136909 12.19697,5.864078 16.42255,8.708922 z" />
			<path style="display:inline;fill:#e47a6b;fill-opacity:1;stroke:none;stroke-width:0.199999;stroke-opacity:1" d="m 270.46287,31.144503 c -8.49511,-0.892775 -16.99437,-1.8041 -23.64607,-3.154322 0.15857,1.448842 -0.43982,2.729465 -1.3321,3.944778 z" />
		</clipPath>
	</defs>
	<g transform="translate(-0.29999998,-0.20000001)" filter="url(#blurFilter)" clip-path="url(#clipMountainBlurPath)">
		<path style="display:inline;fill:url(#linearGradient72);stroke:none;stroke-width:0.199999;stroke-opacity:1" d="m 270.70415,31.100514 c 0.006,-0.053 -16.13656,-1.386873 -23.38969,-2.985924 -3.99282,-0.880265 -11.76038,-8.007085 -21.77986,-10.87419 -1.68215,-0.481347 -3.4274,-0.534927 -5.0934,-1.069474 -2.83104,-0.908445 -4.90722,-3.49697 -7.71362,-4.478885 -2.13686,-0.747656 -4.51803,-0.462457 -6.71831,-0.995304 -4.00229,-0.9692446 -11.69485,-3.9812179 -11.69485,-3.9812179 0,0 -11.33851,-3.6134999 -17.16902,-4.7277037 -5.24504,-1.00232448 -10.59209,-2.01797884 -15.9249,-1.74179038 -4.32154,0.22381876 -8.53622,1.52445158 -12.69015,2.73709488 -2.97268,0.8678051 -5.69207,2.5358359 -8.70892,3.234742 -3.24822,0.7525058 -6.68405,0.3390781 -9.95307,0.9953045 -3.06113,0.6144966 -5.85331,2.4045766 -8.95775,2.7370948 -3.9723,0.4254678 -7.95865,-1.2778529 -11.94366,-0.9953045 -2.97039,0.2106088 -5.73216,2.0703883 -8.70893,1.9906083 C 96.636346,10.848466 93.321885,8.8392074 89.807304,7.9596522 84.457414,6.6207997 79.148393,4.5031614 73.633584,4.4760816 70.331532,4.4598817 67.22662,6.2880315 63.929358,6.4666905 59.520372,6.7055792 55.113427,4.6037709 50.741551,5.2225574 44.915983,6.0471028 39.799572,9.5518034 34.319012,11.692041 29.182531,13.69791 18.891768,17.663878 18.891768,17.663878 17.488276,18.207165 -1.1202012,25.851933 0.38674045,26.28742 10.291355,29.149724 20.979186,29.783841 30.337794,30.851685 c 11.538216,1.316543 23.222841,0.570017 34.835697,0.497647 17.510883,-0.109119 34.595058,-1.70983 52.514879,-1.404982 8.85147,0.150579 18.97816,0.707466 27.73919,1.552041 3.89069,0.375068 6.7044,1.424322 11.47103,1.299333 5.09093,-0.133509 11.95359,-2.101288 17.01207,-2.690525 15.25926,-1.77749 30.67156,2.054289 46.03289,2.239448 16.92405,0.203988 50.7606,-1.244133 50.7606,-1.244133 z" />
		<path style="display:inline;fill:#be534d;fill-opacity:1;stroke:none;stroke-width:0.199999;stroke-opacity:1" d="M 73.882413,4.5382912 C 68.262704,10.246079 61.153573,15.723299 53.727464,20.774211 68.624012,18.018716 83.503179,15.098082 98.236297,10.790056 92.876257,8.8696872 79.522511,4.5374812 73.882413,4.5382912 Z" />
		<path style="display:inline;fill:#c55f5a;fill-opacity:1;stroke:none;stroke-width:0.199999;stroke-opacity:1" d="m 96.650036,30.229618 c 0,0 8.014934,-8.91263 4.852114,-8.335683 -7.877927,1.437042 -20.236408,8.90545 -30.73007,7.713617 -7.875896,-0.894525 -24.342185,0.323758 -22.892033,-0.746476 1.547981,-1.142424 13.018898,-3.793999 12.56574,-3.732399 -9.621296,1.307862 -19.304793,3.433251 -28.926089,5.816317 -0.0462,0.600657 24.275185,0.788276 36.390878,0.342138 9.582297,-0.352858 28.73946,-1.057514 28.73946,-1.057514 z" />
		<path style="display:inline;fill:#a1443d;fill-opacity:1;stroke:none;stroke-width:0.199999;stroke-opacity:1" d="m 174.53272,21.769515 c 5.745,-1.082914 10.03649,-6.423704 18.16432,-7.838036 1.33397,-0.232119 3.00771,-1.528832 4.01233,-3.732389 0.51151,-1.121924 -2.57332,-1.7928102 -3.76349,-2.1150285 -1.35038,-0.3655979 -2.56126,0.4682174 -3.35916,1.6173711 -0.83023,1.1957434 -2.87374,2.3725164 -4.7277,3.6079794 -3.53822,2.357857 -7.50543,4.062238 -11.19719,6.593904 -0.56614,0.388237 0.19631,1.993359 0.87089,1.866199 z" />
		<path style="display:inline;fill:url(#linearGradient67);stroke:none;stroke-width:0.199999;stroke-opacity:1" d="m 117.58256,29.94969 c 6.46964,-6.407205 9.63,-14.609019 12.41022,-22.8609329 0,0 8.9009,-0.0793 12.06808,-1.4929617 2.70048,-1.2053934 6.38285,-2.708205 6.34508,-2.5193661 -0.006,9.4826267 0.29768,19.1414737 -3.11033,28.3973217 -9.20658,-0.947044 -18.47537,-1.285402 -27.71305,-1.524061 z" />
		<path style="display:inline;fill:#c35950;fill-opacity:1;stroke:none;stroke-width:0.199999;stroke-opacity:1" d="m 242.46235,26.123981 c 1.41422,0.952115 -2.57025,4.477775 -3.85681,3.359161 -5.97621,-5.196061 -7.94937,-7.574297 -15.30284,-9.455407 -2.46669,-0.631017 3.85492,4.020688 4.16968,5.34352 0.2869,1.205754 -2.37757,-0.704616 -3.54761,-1.113474 -2.59113,-0.905444 -6.24022,-3.728219 -7.34038,-3.856808 -2.94298,-0.343968 6.73826,5.969167 5.97184,6.469484 -0.75589,0.493437 -6.49345,-1.623221 -6.84274,-1.8662 0,0 -8.58363,-4.300736 -11.44601,-7.962445 -0.57396,-0.734236 -0.22794,-2.083839 -0.99531,-2.612676 -0.92198,-0.635386 -2.47814,-0.691076 -3.35916,0 -1.13097,0.887135 1.27406,2.730645 -1.49295,4.727704 -3.80525,2.746405 -8.31725,4.393175 -12.69015,6.096246 -3.19063,1.242623 -6.40993,2.090788 -9.82864,2.282137 -2.27396,0.12728 -4.67092,0.384678 -6.71832,-0.540347 -1.57692,-0.712456 -4.42628,-2.022808 -3.7324,-3.60799 1.12554,-2.571285 1.98859,-3.61999 1.11972,-5.100941 -0.40313,-0.687107 -1.109,-1.740491 -1.86619,-1.492952 -5.53084,1.80812 -15.64084,7.709287 -15.67608,7.21596 0,0 9.27629,-9.626617 14.55635,-13.685454 4.29726,-3.3033416 13.50196,-8.3645835 13.50196,-8.3645835 0,0 11.43464,2.7620247 17.10369,4.7264138 3.69024,1.2787029 7.7817,3.0260732 11.8708,4.0025677 2.15248,0.514027 4.82796,0.336248 6.89426,1.128564 2.83623,1.087543 4.63569,3.339241 7.49369,4.368255 1.81008,0.651717 3.79985,0.572237 5.59105,1.230343 5.81614,2.136909 12.19697,5.864078 16.42255,8.708922 z" />
		<path style="display:inline;fill:#e47a6b;fill-opacity:1;stroke:none;stroke-width:0.199999;stroke-opacity:1" d="m 270.46287,31.144503 c -8.49511,-0.892775 -16.99437,-1.8041 -23.64607,-3.154322 0.15857,1.448842 -0.43982,2.729465 -1.3321,3.944778 z" />
	</g>
</svg>