<?xml version="1.0" encoding="UTF-8" standalone="no" ?>
<svg x="0" y="0" viewBox="0 0 203.9 54.46" version="1.1" xml:space="preserve" xmlns:xlink="http://www.w3.org/1999/xlink" xmlns="http://www.w3.org/2000/svg" xmlns:svg="http://www.w3.org/2000/svg">
<defs>
	<linearGradient id="linearGradient73">
		<stop style="stop-color:#d74927;stop-opacity:1" offset="0" />
		<stop style="stop-color:#af301f;stop-opacity:1" offset="1" />
	</linearGradient>
	<linearGradient id="linearGradient48">
		<stop style="stop-color:#761511;stop-opacity:1" offset="0" />
		<stop style="stop-color:#8c1a15;stop-opacity:1" offset="1" />
	</linearGradient>
	<linearGradient id="linearGradient45">
		<stop style="stop-color:#8b1113;stop-opacity:1" offset="0" />
		<stop style="stop-color:#be2919;stop-opacity:1" offset="1" />
	</linearGradient>
	<linearGradient id="linearGradient37">
		<stop style="stop-color:#6a1615;stop-opacity:1" offset="0.0019" />
		<stop style="stop-color:#6a1411;stop-opacity:1" offset="1" />
	</linearGradient>
	<linearGradient id="linearGradient18">
		<stop style="stop-color:#330c0c;stop-opacity:1" offset="0" />
		<stop style="stop-color:#54130f;stop-opacity:1" offset="1" />
	</linearGradient>
	<linearGradient id="linearGradient16">
		<stop style="stop-color:#270b0c;stop-opacity:1" offset="0" />
		<stop style="stop-color:#2a0b0d;stop-opacity:1" offset="1" />
	</linearGradient>
	<linearGradient id="linearGradient10">
		<stop style="stop-color:#360a0d;stop-opacity:1" offset="0" />
		<stop style="stop-color:#42080d;stop-opacity:1" offset="1" />
	</linearGradient>
	<linearGradient id="linearGradient7">
		<stop style="stop-color:#520c0e;stop-opacity:1" offset="0" />
		<stop style="stop-color:#680a0d;stop-opacity:1" offset="1" />
	</linearGradient>
	<linearGradient id="linearGradient9">
		<stop style="stop-color:#7e110f;stop-opacity:1" offset="0" />
		<stop style="stop-color:#a61d14;stop-opacity:1" offset="0.3136" />
		<stop style="stop-color:#cc3321;stop-opacity:1" offset="0.5264" />
		<stop style="stop-color:#e04d2a;stop-opacity:1" offset="1" />
	</linearGradient>
	<linearGradient id="linearGradient3">
		<stop style="stop-color:#931512;stop-opacity:1" offset="0" />
		<stop style="stop-color:#801210;stop-opacity:1" offset="1" />
	</linearGradient>
	<linearGradient id="linearGradient1">
		<stop style="stop-color:#520c0e;stop-opacity:1" offset="0" />
		<stop style="stop-color:#6c110f;stop-opacity:1" offset="1" />
	</linearGradient>
	<linearGradient xlink:href="#linearGradient1" id="linearGradient2" x1="77.11" y1="21.68" x2="92.8" y2="7.677" gradientUnits="userSpaceOnUse" />
	<linearGradient xlink:href="#linearGradient3" id="linearGradient4" x1="89.91" y1="7.638" x2="99.1" y2="4.409" gradientUnits="userSpaceOnUse" />
	<linearGradient xlink:href="#linearGradient9" id="linearGradient6" x1="94.2" y1="3.165" x2="106.1" y2="3.165" gradientUnits="userSpaceOnUse" />
	<linearGradient xlink:href="#linearGradient7" id="linearGradient8" x1="84.31" y1="6.732" x2="93.85" y2="1.265" gradientUnits="userSpaceOnUse" />
	<linearGradient xlink:href="#linearGradient10" id="linearGradient14" x1="63.04" y1="22.83" x2="83.62" y2="12.24" gradientUnits="userSpaceOnUse" />
	<linearGradient xlink:href="#linearGradient16" id="linearGradient17" x1="17.25" y1="42.76" x2="40.62" y2="36.5" gradientUnits="userSpaceOnUse" />
	<linearGradient xlink:href="#linearGradient18" id="linearGradient19" x1="0.2752" y1="48.88" x2="31.07" y2="48.88" gradientUnits="userSpaceOnUse" />
	<linearGradient xlink:href="#linearGradient37" id="linearGradient38" x1="49.06" y1="51.24" x2="71.34" y2="51.24" gradientUnits="userSpaceOnUse" />
	<linearGradient xlink:href="#linearGradient45" id="linearGradient46" x1="96.94" y1="8.126" x2="101.4" y2="11.97" gradientUnits="userSpaceOnUse" />
	<linearGradient xlink:href="#linearGradient48" id="linearGradient49" x1="92.68" y1="25.4" x2="108" y2="39.15" gradientUnits="userSpaceOnUse" />
	<linearGradient xlink:href="#linearGradient73" id="linearGradient74" x1="129" y1="27.1" x2="153.9" y2="27.1" gradientUnits="userSpaceOnUse" />
	<clipPath id="clipMountainBlurPath">
		<path transform="translate(-0.2558,-1.531)" d="M 92.9,1.581 C 92,1.681 91.1,1.681 90.2,1.981 89.3,2.281 88.1,3.481 88.1,3.481 88.1,3.481 86.28,5.081 85.59,5.681 85.21,6.081 84.62,6.581 84.36,6.781 H 84.29 C 84.29,6.781 83.35,7.481 82.98,7.781 81.96,8.481 80.76,9.281 79.86,10.08 78.97,10.98 77.9,11.68 77.38,11.98 H 77.27 C 77.27,11.98 73.79,14.28 72.08,15.58 69.9,17.18 67.8,18.58 65.6,20.48 64.76,21.28 62.96,22.68 62.96,22.68 H 62.98 C 62.91,22.68 61.43,23.48 60.44,23.78 59.1,24.28 56.57,25.48 54.67,26.48 53.16,27.18 50.31,28.74 50.11,28.85 V 28.85 L 50.09,28.86 C 50.09,28.87 50.04,28.89 50.04,28.89 V 28.9 C 49.85,29.02 48.58,29.83 47.76,30.25 46.46,30.93 45.09,31.49 43.77,32.11 41.24,33.3 37.02,35.56 37.02,35.56 V 35.56 C 36.97,35.59 35.18,36.55 34.02,36.93 31.7,37.7 30.17,38.48 27.48,39.38 26.01,39.87 24.01,40.01 22.5,40.33 20.64,40.72 18.78,41.17 16.98,41.78 16.29,42.02 15.31,42.46 14.8,42.69 H 14.73 C 7.064,45.12 2.024,48.28 0.3737,49.99 H 0.4337 C 0.5037,50.02 3.534,51.24 5.154,51.47 8.684,51.95 12.28,51.49 15.83,51.15 17.08,51.03 18.3,50.62 19.56,50.54 21.47,50.42 23.39,50.72 25.3,50.72 26,50.72 27.18,50.67 27.46,50.66 29.02,52.05 30.5,52.46 32.17,53.03 34.12,53.7 34.82,53.76 35.93,53.65 40.46,53.22 47.53,52.51 49.18,52.54 L 49.17,52.55 C 49.17,52.54 49.24,52.54 49.34,52.55 49.47,52.55 49.56,52.57 49.54,52.6 49.57,52.59 49.59,52.57 49.62,52.56 50.7,52.63 53.66,52.94 55.74,53.58 56.5,53.81 57.28,53.99 58.07,54.08 61.31,54.44 68.88,54.16 69.37,54.15 69.69,54.17 73.61,54.46 75.52,54.72 76.9,54.9 78.23,55.44 79.62,55.51 80.99,55.58 82.35,55.26 83.72,55.12 84.74,55.02 85.75,54.87 86.77,54.8 88,54.72 89.9,54.54 90,54.53 90.4,54.57 94.9,54.89 97.3,55.17 98,55.25 99.3,55.46 99.3,55.46 99.9,55.55 100.4,55.52 100.6,55.65 101.5,56.1 102.5,55.98 103.5,55.59 104.2,55.31 104.9,55.28 105.6,55.28 106.7,55.28 107.4,55.13 108.1,54.97 V 54.98 C 108.1,54.98 113.1,54.67 115.6,54.53 118.7,54.36 122,54.47 125.2,54.48 126.5,54.49 129,54.53 129,54.53 131.5,55.29 133.5,55.13 135.5,54.98 L 139.5,54.04 V 54.06 C 139.5,54.06 141.2,53.66 142.1,53.48 143.1,53.26 144.2,53.31 145.3,53.23 147.2,53.1 148.7,53.28 151.3,53.13 151.7,53.11 152,53.07 152.3,52.6 152.7,52.19 153.5,51.47 153.5,51.45 154.6,51.19 155.8,50.88 157.2,50.8 157.3,50.8 163.7,51.15 167,51.44 169,51.61 171.5,51.55 173.4,51.94 174.5,52.17 176.7,52.89 176.7,52.89 176.7,52.89 179.1,52.6 180,52.52 181.3,52.4 182.1,52.51 183.4,52.36 184.1,52.28 185.6,51.92 185.6,51.92 185.6,51.92 184.7,51.38 184.2,51.07 183.8,50.81 183.1,50.22 183.1,50.22 183.1,50.22 182.9,50.17 182.9,50.16 L 183.2,50.17 187.3,49.93 193,49.9 197.4,50.51 198.8,50.56 C 199.1,50.59 199.4,50.62 199.6,50.65 201.1,50.81 204,50.94 204,50.94 204,50.94 201.3,48.04 199.6,47.05 198,46.1 196.1,45.5 194.3,45.17 192.7,44.89 189.6,45.07 189.6,45.07 189.6,45.07 186.5,44.03 184.9,43.63 183.6,43.31 182.3,43.12 181,42.89 180.3,42.77 179.3,42.6 178.3,42.45 176.9,42.15 174.2,41.6 172.3,41.15 171,40.84 170.9,40.52 168.8,40.01 168.1,39.85 167.2,39.5 166.6,39.21 164.9,38.42 163.3,37.67 161.6,36.94 159.8,36.17 158,35.55 156.2,34.72 155.5,34.38 154,33.52 154,33.52 V 33.53 C 153.9,33.5 151.7,31.93 150.5,31.2 146.8,28.85 143.1,26.68 139.3,24.58 137.2,23.38 135,22.38 132.9,21.18 131.8,20.48 129.3,19.08 129.3,19.08 L 120.5,12.08 120.6,11.98 C 120.6,11.98 118.4,9.981 117.2,9.081 115.2,7.481 113.3,5.781 111.2,4.481 110.6,4.081 110.6,3.481 109.9,3.481 H 106.2 C 106.3,3.381 104.4,2.281 102.3,2.081 100.2,1.981 94.4,1.681 94.3,1.681 V 1.781 C 94.1,1.681 93.3,1.581 92.9,1.581 Z M 94.7,2.781 V 2.881 2.881 Z M 51.36,36.83 C 51.36,36.85 51.36,36.85 51.35,36.86 51.3,36.89 51.35,36.85 51.36,36.83 Z M 105.1,44.94 V 44.97 C 104.9,44.94 105.1,44.94 105.1,44.94 Z" />
	</clipPath>
	<filter id="blurFilter" x="0" y="-50%" width="100%" height="200%">
		<feGaussianBlur in="SourceGraphic" stdDeviation="1" />
	</filter>
</defs>
<g clip-path="url(#clipMountainBlurPath)">
	<g style="stroke:none" transform="translate(-0.2558,-1.531)">
		<path style="fill:#6f1613" d="M 92.9,1.584 C 92,1.684 91.1,1.684 90.2,1.984 89.3,2.284 88.1,3.484 88.1,3.484 88.1,3.484 86.28,5.084 85.59,5.684 85.21,6.084 84.62,6.584 84.36,6.784 H 84.29 C 84.29,6.784 83.35,7.484 82.98,7.784 81.96,8.484 80.76,9.284 79.86,10.08 78.97,10.98 77.9,11.68 77.38,11.98 H 77.27 C 77.27,11.98 73.79,14.28 72.08,15.58 69.9,17.18 67.8,18.58 65.6,20.48 64.76,21.28 62.96,22.68 62.96,22.68 H 62.98 C 62.91,22.68 61.43,23.48 60.44,23.78 59.1,24.28 56.57,25.48 54.67,26.48 53.16,27.18 50.31,28.74 50.11,28.85 V 28.85 L 50.09,28.86 C 50.09,28.87 50.04,28.89 50.04,28.89 V 28.9 C 49.85,29.02 48.58,29.83 47.76,30.25 46.46,30.93 45.09,31.49 43.77,32.11 41.24,33.3 37.02,35.56 37.02,35.56 V 35.56 C 36.97,35.59 35.18,36.55 34.02,36.93 31.7,37.7 30.17,38.48 27.48,39.38 26.01,39.87 24.01,40.01 22.5,40.33 20.64,40.72 18.78,41.17 16.98,41.78 16.29,42.02 15.31,42.46 14.8,42.69 H 14.73 C 7.064,45.12 2.024,48.28 0.3737,49.99 H 0.4337 C 0.5037,50.02 3.534,51.24 5.154,51.47 8.684,51.95 12.28,51.49 15.83,51.15 17.08,51.03 18.3,50.62 19.56,50.54 21.47,50.42 23.39,50.72 25.3,50.72 26,50.72 27.18,50.67 27.46,50.66 29.02,52.05 30.5,52.46 32.17,53.03 34.12,53.7 34.82,53.76 35.93,53.65 40.46,53.22 47.53,52.51 49.18,52.54 L 49.17,52.55 C 49.17,52.54 49.24,52.54 49.34,52.55 49.47,52.55 49.56,52.57 49.54,52.6 49.57,52.59 49.59,52.57 49.62,52.56 50.7,52.63 53.66,52.94 55.74,53.58 56.5,53.81 57.28,53.99 58.07,54.08 61.31,54.44 68.88,54.16 69.37,54.15 69.69,54.17 73.61,54.46 75.52,54.72 76.9,54.9 78.23,55.44 79.62,55.51 80.99,55.58 82.35,55.26 83.72,55.12 84.74,55.02 85.75,54.87 86.77,54.8 88,54.72 89.9,54.54 90,54.53 90.4,54.57 94.9,54.89 97.3,55.17 98,55.25 99.3,55.46 99.3,55.46 99.9,55.55 100.4,55.52 100.6,55.65 101.5,56.1 102.5,55.98 103.5,55.59 104.2,55.31 104.9,55.28 105.6,55.28 106.7,55.28 107.4,55.13 108.1,54.97 V 54.98 C 108.1,54.98 113.1,54.67 115.6,54.53 118.7,54.36 122,54.47 125.2,54.48 126.5,54.49 129,54.53 129,54.53 131.5,55.29 133.5,55.13 135.5,54.98 L 139.5,54.04 V 54.06 C 139.5,54.06 141.2,53.66 142.1,53.48 143.1,53.26 144.2,53.31 145.3,53.23 147.2,53.1 148.7,53.28 151.3,53.13 151.7,53.11 152,53.07 152.3,52.6 152.7,52.19 153.5,51.47 153.5,51.45 154.6,51.19 155.8,50.88 157.2,50.8 157.3,50.8 163.7,51.15 167,51.44 169,51.61 171.5,51.55 173.4,51.94 174.5,52.17 176.7,52.89 176.7,52.89 176.7,52.89 179.1,52.6 180,52.52 181.3,52.4 182.1,52.51 183.4,52.36 184.1,52.28 185.6,51.92 185.6,51.92 185.6,51.92 184.7,51.38 184.2,51.07 183.8,50.81 183.1,50.22 183.1,50.22 183.1,50.22 182.9,50.17 182.9,50.16 L 183.2,50.17 187.3,49.93 193,49.9 197.4,50.51 198.8,50.56 C 199.1,50.59 199.4,50.62 199.6,50.65 201.1,50.81 204,50.94 204,50.94 204,50.94 201.3,48.04 199.6,47.05 198,46.1 196.1,45.5 194.3,45.17 192.7,44.89 189.6,45.07 189.6,45.07 189.6,45.07 186.5,44.03 184.9,43.63 183.6,43.31 182.3,43.12 181,42.89 180.3,42.77 179.3,42.6 178.3,42.45 176.9,42.15 174.2,41.6 172.3,41.15 171,40.84 170.9,40.52 168.8,40.01 168.1,39.85 167.2,39.5 166.6,39.21 164.9,38.42 163.3,37.67 161.6,36.94 159.8,36.17 158,35.55 156.2,34.72 155.5,34.38 154,33.52 154,33.52 V 33.53 C 153.9,33.5 151.7,31.93 150.5,31.2 146.8,28.85 143.1,26.68 139.3,24.58 137.2,23.38 135,22.38 132.9,21.18 131.8,20.48 129.3,19.08 129.3,19.08 L 120.5,12.08 120.6,11.98 C 120.6,11.98 118.4,9.984 117.2,9.084 115.2,7.484 113.3,5.784 111.2,4.484 110.6,4.084 110.6,3.484 109.9,3.484 H 106.2 C 106.3,3.384 104.4,2.284 102.3,2.084 100.2,1.984 94.4,1.684 94.3,1.684 V 1.784 C 94.1,1.684 93.3,1.584 92.9,1.584 Z M 94.7,2.784 V 2.884 2.884 Z M 51.36,36.83 C 51.36,36.85 51.36,36.85 51.35,36.86 51.3,36.89 51.35,36.85 51.36,36.83 Z M 105.1,44.94 V 44.97 C 104.9,44.94 105.1,44.94 105.1,44.94 Z" />
	</g>
	<g style="stroke:none" transform="translate(-0.2558,-1.531)" filter="url(#blurFilter)">
		<path style="fill:#e8542e" d="M 120.5,11.91 118.4,14.98 106.7,11.44 102.6,4.4 C 102.6,4.4 104.9,3.321 106.1,3.358 107.2,3.39 108.7,3.369 109.8,3.406 110.5,3.432 110.5,3.975 111.1,4.382 113.2,5.743 115.1,7.391 117.1,8.981 118.3,9.925 120.5,11.91 120.5,11.91 Z" />
		<path style="fill:url(#linearGradient2)" d="M 79.89,21.04 C 79.89,21.04 81.89,19.74 82.82,19.03 83.95,18.17 85.03,17.23 86.21,16.44 87.09,15.85 88.04,15.37 88.96,14.84 89.33,14.63 89.73,14.45 90.07,14.2 90.91,13.58 91.52,12.74 92.18,11.93 92.77,11.21 93.44,10.51 93.83,9.658 94.03,9.22 94.28,8.282 94.28,8.282 94.28,8.282 93.04,8.266 92.48,8.155 91.92,8.044 91.46,7.785 90.94,7.642 90.51,7.523 89.62,7.356 89.62,7.356 89.62,7.356 88.46,8.369 87.87,8.859 86.91,9.654 85.9,10.39 84.94,11.19 84.53,11.53 84.09,11.85 83.72,12.25 83.25,12.75 82.91,13.36 82.5,13.91 82.27,14.22 81.92,14.45 81.63,14.71 81.3,15.02 80.6,15.23 80.28,15.55 79.89,15.93 80,16.44 79.75,16.92 79.43,17.53 78.89,18.13 78.58,18.74 78.09,19.72 77.26,21.65 77.26,21.65 77.26,21.65 78.07,21.37 78.48,21.23 78.76,21.13 79.03,20.96 79.33,20.95 79.57,20.94 79.89,21.04 79.89,21.04 Z" />
		<path style="fill:url(#linearGradient6)" d="M 94.2,1.631 C 94.2,1.631 94.29,2.623 94.67,2.813 95.47,3.213 96.55,3.497 97.51,3.805 98.17,4.018 98.84,4.224 99.52,4.35 100.7,4.561 101.8,4.698 103,4.699 103.4,4.7 104.1,4.755 104.7,4.284 105.5,3.598 105.6,4.002 106.1,3.358 106.2,3.334 104.3,2.222 102.2,2.046 100.1,1.871 94.28,1.606 94.2,1.631 Z" />
		<path style="fill:url(#linearGradient8)" d="M 84.12,6.843 C 84.12,6.843 84.99,6.067 85.48,5.628 86.17,5.005 87.96,3.358 87.96,3.358 87.96,3.358 89.16,2.25 90.1,1.887 90.95,1.56 91.89,1.556 92.8,1.535 93.31,1.523 94.33,1.663 94.33,1.663 94.44,2.151 94.59,2.724 94.62,2.974 94.62,2.974 92.71,4.405 91.84,5.213 90.99,5.998 89.46,7.737 89.46,7.737 89.46,7.737 89.33,7.207 89.12,7.067 88.19,6.438 86.88,6.805 85.76,6.779 85.21,6.766 84.12,6.843 84.12,6.843 Z" />
		<path style="fill:#4c090c" d="M 76.94,12.09 C 76.94,12.09 78.52,11.23 79.75,10.04 80.65,9.163 81.85,8.408 82.87,7.673 83.24,7.41 84.18,6.746 84.18,6.746 84.18,6.746 85.59,6.481 86.42,6.491 87.39,6.502 88.54,6.384 89.28,7.004 89.41,7.113 89.49,7.316 89.46,7.483 89.28,8.369 88.32,8.9 87.61,9.465 86.74,10.16 85.77,10.63 84.94,11.38 84.54,11.75 84.24,12.21 83.77,12.47 83.14,12.81 82.25,12.8 81.54,12.76 80.61,12.7 79.75,12.44 78.83,12.32 78.2,12.23 76.94,12.09 76.94,12.09 Z" />
		<path style="fill:url(#linearGradient14)" d="M 83.54,12.58 C 83.54,12.58 82.14,14.81 80.52,15.84 79.05,16.77 77.11,17.19 75.61,18 74.34,18.68 73.32,19.39 72.08,20.12 71.2,20.64 70.33,21.19 69.38,21.57 67.72,22.24 66.19,22.44 64.22,23.02 63.76,23.15 62.85,22.62 62.85,22.62 62.85,22.62 64.65,21.2 65.49,20.44 67.69,18.47 69.79,17.06 71.97,15.47 73.68,14.23 77.16,11.94 77.16,11.94 79.49,11.94 81.55,12.84 83.54,12.58 Z" />
		<path style="fill:#350c0e" d="M 62.9,22.59 C 63.54,23.05 63.97,22.83 64.6,22.94 64.6,22.94 62.35,25.37 61.23,26.59 60.48,27.41 58.98,28.94 58.98,28.94 56.79,30.04 54.7,32.2 51.6,32.1 L 49.06,32.02 C 49.26,30.93 49.56,29.86 49.93,28.81 49.93,28.81 53,27.13 54.56,26.36 56.46,25.42 58.99,24.22 60.33,23.74 61.34,23.38 62.9,22.59 62.9,22.59 Z" />
		<path style="fill:#340d0e" d="M 50,28.77 C 50,28.77 50.47,31.46 49.43,31.96 45.99,33.62 42.94,35.21 41.75,35.8 40.72,36.31 37.04,35.43 36.91,35.48 36.91,35.48 41.13,33.22 43.66,32.03 44.98,31.41 46.35,30.85 47.65,30.17 48.53,29.72 50,28.77 50,28.77 Z" />
		<path style="fill:url(#linearGradient17)" d="M 36.93,35.47 42.47,35.54 C 42.47,35.54 40.66,37.26 39.93,38.26 39.42,38.95 38.66,40.51 38.66,40.51 L 35.35,39.98 C 32.46,39.93 29.41,41.33 26.41,42.28 L 23.51,44.12 19.36,43.37 14.24,42.81 C 14.24,42.81 15.97,42.01 16.87,41.7 18.67,41.09 20.53,40.64 22.39,40.25 23.9,39.93 25.9,39.79 27.37,39.3 30.06,38.4 31.59,37.62 33.91,36.85 35.09,36.46 36.93,35.47 36.93,35.47 Z" />
		<path style="fill:#330c0c" d="M 23.53,44.02 C 21.93,42.01 18.05,42.56 14.62,42.61 6.946,45.04 1.907,48.2 0.2558,49.91 0.2558,49.91 7.329,49.86 10.87,49.64 12.65,49.53 14.4,49.08 16.12,48.61 17.52,48.22 18.83,47.55 20.23,47.13 21.36,46.8 23.66,46.31 23.66,46.31 Z" />
		<path style="fill:url(#linearGradient19)" d="M 0.294,49.9 C 0.294,49.9 3.398,51.16 5.041,51.39 8.568,51.87 12.17,51.41 15.72,51.07 16.97,50.95 18.19,50.54 19.45,50.46 21.36,50.34 23.28,50.64 25.19,50.64 25.97,50.64 27.54,50.57 27.54,50.57 27.54,50.57 29.31,50.15 30.06,49.67 30.44,49.43 31.01,48.71 31.01,48.71 30.61,47.91 30.23,47.11 29.34,46.31 29.34,46.31 25.33,45.97 23.34,46.17 21.77,46.32 18.72,47.2 18.72,47.2 17.6,47.45 16.29,48.06 15.18,48.37 13.85,48.74 12.36,49.55 10.65,49.54 7.321,49.53 0.3511,49.7 0.294,49.9 Z" />
		<path style="fill:#38090d" d="M 58.62,29.02 C 58.62,29.02 61.8,25.79 63.1,23.98 63.34,23.65 64.47,22.72 64.47,22.72 64.47,22.72 66.95,22.14 68.36,21.59 69.46,21.17 70.62,20.67 71.65,20.11 73.2,19.27 74.7,18.32 76.28,17.53 77.6,16.87 80.31,15.74 80.31,15.74 80.31,15.74 79.18,18.33 78.53,19.58 78.17,20.28 77.83,21.01 77.34,21.63 76.52,22.68 75.43,23.48 74.48,24.41 73.43,25.43 73.2,25.69 70.68,27.8 69.4,28.88 65.27,30.43 64.99,30.74 64.99,30.74 63.23,30.09 62.28,29.8 61.14,29.46 58.62,29.02 58.62,29.02 Z" />
		<path style="fill:#320d0e" d="M 23.47,43.95 C 23.26,44.84 23.28,45.6 23.49,46.23 25.58,46.38 27.65,46.5 29.41,46.31 29.41,46.31 30.04,45.92 30.3,45.8 32.28,44.89 34.56,44.86 36.67,44.32 37.58,44.09 38.47,43.82 39.37,43.56 40.14,43.35 41.76,42.01 41.78,41.97 41.78,41.97 40.59,41.16 39.93,40.88 39.23,40.59 38.48,40.43 37.74,40.28 36.36,40.01 34.96,39.67 33.55,39.86 33.23,39.9 32.9,39.95 32.6,40.06 31.73,40.39 30.84,40.57 29.95,40.87 29.34,41.07 28.71,41.36 28.13,41.6 27.45,41.88 26.65,41.97 26.03,42.29 25.1,42.77 23.47,43.95 23.47,43.95 Z" />
		<path style="fill:#2d0b0d" d="M 37.22,40.39 C 38.77,40.67 40.01,41.46 41.56,42.19 41.56,42.19 44.34,40.42 45.51,39.69 46.16,39.28 46.79,38.84 47.47,38.47 48.72,37.79 50.45,37.77 51.34,36.65 51.56,36.39 51.51,36.08 51.6,35.75 51.67,35.5 51.65,35.36 51.72,35.01 51.79,34.68 51.74,34.58 51.64,34.16 51.54,33.79 51.68,33.58 51.62,32.04 50.37,31.84 49.82,31.94 49.16,31.99 48.34,32.05 47.59,32.69 46.78,33.06 45.84,33.5 44.83,33.94 43.9,34.4 43.21,34.74 42.47,35.05 41.91,35.59 41.22,36.26 40.82,37.04 40.16,37.74 39.32,38.64 37.22,40.39 37.22,40.39 Z" />
		<path style="fill:#2c090d" d="M 51.2,36.89 C 51.2,36.89 51.58,35.93 51.61,35.32 51.64,34.65 51.31,33.98 51.28,33.31 51.26,32.82 51.62,31.88 51.62,31.88 51.62,31.88 53.85,30.71 55.01,30.24 56.32,29.71 57.62,28.97 59.03,28.92 59.5,28.9 59.94,29.2 60.41,29.26 61.3,29.38 62.23,29.12 63.11,29.32 64.02,29.52 66.16,30.6 66.16,30.6 66.16,30.6 63.82,31.31 62.95,31.83 61.75,32.54 60.66,33.42 59.51,34.21 58.49,34.91 57.6,35.85 56.44,36.28 54.79,36.89 51.2,36.89 51.2,36.89 Z" />
		<path style="fill:#50100f" d="M 29.17,46.31 C 29.17,46.31 30.14,45.63 30.7,45.42 33.07,44.51 35.98,44.66 38.37,43.79 39.62,43.34 40.67,42.47 41.81,41.79 43.18,40.98 44.48,40.09 45.86,39.29 46.7,38.8 47.49,38.29 48.37,37.88 49.34,37.43 50.39,37.03 51.41,36.73 53.25,36.2 57.1,35.93 57.1,35.93 57.1,35.93 55.17,39.76 53.45,40.88 52.49,41.5 51.21,41.39 50.09,41.62 49.36,41.77 48.56,41.76 47.92,42.15 47.24,42.57 46.79,43.2 46.44,43.92 46.2,44.41 46.51,45.23 46.04,45.51 44.42,46.48 42.55,46.9 41.15,47.5 39.75,48.1 38.11,47.47 36.59,47.58 35.46,47.66 34.33,47.81 33.21,48.02 32.48,48.16 31.02,48.73 31.02,48.73 30,48.6 29.5,47.3 29.17,46.31 Z" />
		<path style="fill:#490d0d" d="M 65.83,30.32 C 65.83,30.32 62.54,31.8 61.02,32.76 59.4,33.78 57.82,34.9 56.49,36.28 55.19,37.63 53.21,40.83 53.21,40.83 53.75,40.9 54.47,41.41 55.54,42.71 55.54,42.71 56.49,41.25 57.15,40.7 58.07,39.93 59.25,39.56 60.3,38.98 61.98,38.05 64.03,37.19 65.18,35.61 65.67,34.93 66.76,33.9 66.76,33.9 66.23,33.52 66.13,31.56 65.83,30.32 Z" />
		<path style="fill:#460c0d" d="M 65.46,30.3 C 65.46,30.3 67.48,29.11 68.43,28.76 69.58,28.34 70.07,27.56 70.92,26.95 72.42,25.88 73.95,24.84 75.25,23.53 75.86,22.92 76.37,22.21 77,21.61 78.11,20.54 80.33,20.55 80.23,20.86 79.16,21.89 80.49,22.92 81.02,23.95 81.02,23.95 80.22,25.07 79.8,25.71 79.43,26.28 79.45,27.22 79.1,27.81 78.8,28.33 77.89,28.34 77.42,28.71 76.43,29.49 75.17,29.85 74.15,30.63 72.9,31.59 70.86,33.95 70.86,33.95 70.11,34.2 68.11,34.09 66.57,34.11 65.78,32.67 65.55,31.51 65.46,30.3 Z" />
		<path style="fill:#460c0d" d="M 79.75,21.2 C 79.53,22.03 79.9,22.96 80.78,23.95 82.89,23.71 85.13,23.63 86.82,22.89 86.82,22.89 87.46,21.15 88.05,20.18 88.61,19.25 89.68,18.26 90.18,17.3 90.82,16.07 91.05,13.23 91.05,13.23 91.05,13.23 89.81,14.08 89.01,14.62 88.08,15.25 86.75,15.91 85.76,16.44 83.99,17.38 79.83,21.09 79.75,21.2 Z" />
		<path style="fill:#671713" d="M 27.25,50.49 C 28.56,50.12 29.59,49.37 30.91,48.61 32.12,47.91 33.64,47.4 36.46,47.31 38.35,47.25 39.9,47.33 41.31,47.28 41.31,47.28 43.37,48.29 44.26,48.68 46.54,49.67 51.19,50.67 51.19,50.67 50.83,51.33 50.39,52.1 49.43,52.52 49.62,52.21 41.03,53.07 35.82,53.57 34.71,53.68 34.01,53.62 32.06,52.95 30.35,52.37 28.85,51.95 27.25,50.49 Z" />
		<path style="fill:#5a120f" d="M 40.72,47.46 C 40.82,47.48 44.77,45.81 46.01,45.22 46.56,44.96 47.84,45.09 47.84,45.09 47.84,45.09 52.5,45.18 54.82,45.33 55.46,45.37 56.73,45.51 56.73,45.51 56.73,45.51 55.16,46.53 54.39,46.88 53.58,47.25 52.73,47.44 51.92,47.81 50.57,48.43 48.24,50.01 48.24,50.01 L 45.38,49.48 C 44.35,49.23 43.22,49.02 42.63,48.02 42.03,47.69 41.28,47.58 40.72,47.46 Z" />
		<path style="fill:#420e10" d="M 45.88,45.41 C 45.84,44.29 46.34,42.66 47.34,42.2 L 48.42,41.7 C 49.79,41.07 51.36,40.89 53.33,40.73 53.35,40.69 54.92,41.65 55.43,42.42 56.07,43.38 56.99,45.49 56.99,45.49 55.28,45.72 53.52,45.63 51.74,45.42 49.47,45.39 47.65,45.25 45.88,45.41 Z" />
		<path style="fill:#3d0c0d" d="M 55.09,42.42 C 56.3,40.88 57.54,40.11 59.07,39.41 60.31,38.84 61.11,38.39 62.1,37.76 63.17,37.08 64.33,35.97 65.25,35.22 65.75,34.81 66.11,34.19 66.72,33.97 67.99,33.52 70.86,33.82 70.86,33.82 70.86,33.82 70.56,34.49 70.49,34.85 70.38,35.41 70.54,36 70.44,36.57 70.26,37.62 70.4,39.22 69.69,40.01 69.12,40.64 67.82,40.17 67.13,40.64 66.26,41.23 65.49,41.96 64.69,42.65 64.2,43.08 63.81,43.65 63.24,43.98 62.57,44.36 61.51,44.51 60.76,44.68 59.34,45.01 56.73,45.33 56.73,45.33 56.01,44.47 55.41,43.53 55.09,42.42 Z" />
		<path style="fill:#651411" d="M 47.56,49.97 C 47.56,49.97 49.13,49.17 49.94,48.74 50.7,48.33 51.1,47.61 51.88,47.26 52.78,46.85 54.19,46.92 55.07,46.46 55.58,46.18 56.59,45.13 56.59,45.13 56.59,45.13 58.53,44.97 59.59,44.73 60.77,44.47 63.19,43.92 63.19,43.92 L 66.79,46.3 C 66.47,46.81 65.39,46.87 64.98,48.72 64.98,48.72 60.88,49.1 59.16,49.48 58.4,49.65 57.54,49.85 56.77,49.99 54.66,50.35 50.5,50.74 50.5,50.74 49.37,50.45 48.5,50.12 47.56,49.97 Z" />
		<path style="fill:#651210" d="M 63.19,43.92 C 63.19,43.92 64.67,42.52 65.54,41.8 66.27,41.21 67.05,40.52 67.9,40.12 68.36,39.9 69.33,39.45 69.33,39.45 69.33,39.45 71.26,40.07 72.21,40.43 72.78,40.64 73.46,40.7 73.9,41.12 74.17,41.37 74.38,42.1 74.38,42.1 74.38,42.1 73.08,43.21 72.34,43.63 71.49,44.11 70.54,44.4 69.62,44.74 68.63,45.11 67.61,45.36 66.63,45.75 66.36,45.86 65.83,46.12 65.83,46.12 64.39,45.65 63.66,44.65 63.19,43.92 Z" />
		<path style="fill:#540e0f" d="M 68.95,39.43 C 68.95,39.43 69.68,37.81 70,36.94 70.33,36.02 70.17,34.85 70.57,33.87 71.11,32.53 72.59,32.09 73.66,30.8 74.67,29.6 77.42,28.39 77.42,28.39 77.42,28.39 78.55,30.42 79.27,31.33 79.91,32.13 81.44,33.5 81.44,33.5 81.44,33.5 80.44,33.5 80.04,33.76 80.04,33.76 76.66,35.61 75.69,37.11 75.09,38.04 75.31,39.01 75.04,39.93 74.82,40.66 74.25,42.07 74.25,42.07 74.25,42.07 73.83,41.6 73.46,41.31 72.49,40.54 71.15,40.31 69.99,39.72 69.67,39.56 68.95,39.43 68.95,39.43 Z" />
		<path style="fill:#420d0f" d="M 80.97,33.52 C 80.97,33.52 79.4,31.89 78.92,31.2 78.23,30.21 77.38,28.44 77.38,28.44 77.38,28.44 78.65,26.37 79.27,25.4 79.64,24.83 80.77,23.53 80.77,23.53 82.61,23.14 84.38,22.69 86.82,22.78 86.82,22.78 87.68,23.64 87.93,24.18 88.3,24.97 88.38,25.88 88.46,26.75 88.53,27.54 88.4,29.13 88.4,29.13 88.4,29.13 87.2,29.83 86.71,30.32 85.76,31.27 84.38,33.63 84.38,33.63 83.24,33.51 82.11,33.51 80.97,33.52 Z" />
		<path style="fill:url(#linearGradient74)" d="M 129.2,19.02 C 128.9,19.49 129.1,20.1 129.1,20.7 129.1,23.06 131,25.36 131.9,27.7 L 150.6,35.19 153.9,33.47 C 153.9,33.47 151.6,31.86 150.4,31.12 146.7,28.77 143,26.65 139.2,24.49 137.1,23.29 134.9,22.28 132.8,21.09 131.7,20.43 129.2,19.02 129.2,19.02 Z" />
		<path style="fill:#de5129" d="M 129.2,19.02 C 128.9,20.21 129.2,21.39 129.8,22.47 129.8,22.47 126.1,21.04 124.4,19.95 122.4,18.63 120.6,16.99 119,15.15 118.8,14.86 118.5,14.33 118.5,14.33 118.5,14.36 118.5,13.93 118.8,13.66 118.9,13.53 119.1,13.45 119.2,13.3 119.4,13 119.4,12.55 119.6,12.27 119.8,12.03 120.2,11.76 120.2,11.76 Z" />
		<path style="fill:#4c0e0f" d="M 74.25,42.04 V 41.81 C 74.25,41.81 74.35,40.77 74.49,40.26 74.66,39.68 74.58,38.76 74.58,38.76 74.36,37.23 74.65,37.54 77.13,35.43 78.27,34.5 79.26,33.33 80.98,33.32 82.15,33.07 83.26,33.02 84.26,33.38 84.64,34.36 84.92,35.41 84.87,36.83 84.87,36.83 83.05,38.07 82.12,38.83 81.37,39.44 80.07,40.88 80.07,40.88 80.07,40.88 77.93,41.09 76.78,41.35 75.99,41.53 74.25,42.04 74.25,42.04 Z" />
		<path style="fill:url(#linearGradient38)" d="M 49.06,52.47 50.59,50.57 C 50.59,50.57 53.26,50.36 54.6,50.19 56.11,50.01 57.69,49.64 59.17,49.33 60.85,48.97 64.14,48.29 64.14,48.29 64.14,48.29 67.18,48.62 68.63,48.94 69.57,49.16 71.34,49.8 71.34,49.8 71.34,49.8 70.59,51.94 70.22,52.85 70,53.4 69.43,54.06 69.43,54.06 69.43,54.06 61.31,54.37 57.96,54 57.17,53.91 56.39,53.73 55.63,53.5 53.05,52.71 49.07,52.41 49.06,52.47 Z" />
		<path style="fill:#cc4023" d="M 112.3,12.52 111.9,17.07 121.3,25.07 128.7,25.94 C 129.3,25.26 130,24.61 130.3,23.59 130.4,23.24 130.5,22.89 130.3,22.69 130.3,22.69 125.9,20.81 124.1,19.57 122.2,18.34 120.5,16.87 119.2,15.19 118.9,14.85 118.5,14.35 118.5,14.35 118.5,14.35 117.1,13.97 116.3,13.76 115,13.41 112.3,12.52 112.3,12.52 Z" />
		<path style="fill:#6f130f" d="M 64.24,48.43 C 64.45,47.53 64.92,46.81 65.63,46.1 67.18,45.4 68.36,44.64 69.6,44.38 71.17,43.97 72.32,43.37 73.4,42.46 73.4,42.46 74.07,42.06 74.41,41.88 75.21,41.45 77.26,41.15 77.26,41.15 78.01,40.96 79.16,40.85 80.05,40.72 80.96,42.24 82.76,43.32 84.09,44.59 84.54,45.02 84.88,45.05 85.28,45.11 84.18,45.67 83.17,46.3 82.5,47.23 82.24,47.82 81.59,48.22 80.97,48.63 80.53,48.52 79.26,48.56 76.02,48.95 74,49.18 72.21,49.48 71.12,50.01 69.54,49.13 66.92,48.76 64.24,48.43 Z" />
		<path style="fill:#6f1613" d="M 79.94,40.7 C 79.5,40.89 81.96,43.44 83.48,44.4 83.95,44.69 84.95,45.14 84.95,45.14 87.02,45.29 89.09,45.41 90.83,44.86 90.83,44.86 91.03,44.32 91.29,43.9 91.73,43.2 91.8,42.32 92.08,41.54 92.26,41.05 92.64,40.09 92.64,40.09 92.64,40.09 90.85,38.79 90.07,38.19 89.74,37.94 89.31,37.82 88.93,37.65 87.74,37.12 85,36.69 85,36.69 85,36.69 83.34,37.65 82.56,38.21 81.58,38.91 79.94,40.7 79.94,40.7 Z" />
		<path style="fill:#5a1111" d="M 84.64,36.98 C 84.66,36.04 84.36,34.61 84.13,33.42 L 85.15,32.29 C 85.51,31.89 85.59,31.46 86.23,30.53 86.69,29.87 87.39,29.37 88.32,29 89.27,28.96 90.2,28.74 91.23,29.19 91.23,29.19 92.64,31.58 93.48,32.68 93.7,32.97 94.22,33.5 94.22,33.5 94.22,33.5 93.21,34.05 92.77,34.42 92.01,35.06 91.53,35.98 90.78,36.63 90.29,37.04 89.17,37.68 89.17,37.68 87.92,37.67 86.24,37.61 84.64,36.98 Z" />
		<path style="fill:#9d2016" d="M 151.2,38.58 151.9,34.5 C 152.6,34.09 153.2,33.66 153.9,33.44 153.9,33.44 155.4,34.3 156.1,34.64 157.9,35.47 159.7,36.09 161.5,36.86 163.2,37.59 164.8,38.34 166.5,39.13 167.1,39.42 168,39.77 168.7,39.93 170.8,40.44 170.9,40.76 172.2,41.07 174.7,41.66 179.6,42.65 179.6,42.65 L 177.5,47.71 Z" />
		<path style="fill:#ba311d" d="M 122.5,30.46 118.6,28.76 107.3,20.07 106.3,13.63 107.9,9.642 112.3,12.54 C 112.3,12.54 112.8,14.32 113.1,15.16 113.2,15.45 113.3,15.74 113.4,16.01 113.7,16.65 114,17.29 114.4,17.86 114.8,18.37 115.8,19.19 116.1,19.7 116.5,20.19 116.3,20.82 116.5,21.37 116.5,21.77 116.8,22.2 117,22.61 117.2,23.16 117.4,23.81 117.7,24.35 118,24.92 118.6,25.38 119,25.89 119.6,26.68 120.2,27.45 120.8,28.23 121.4,28.97 122.5,30.46 122.5,30.46 Z" />
		<path style="fill:#5b1111" d="M 90.04,17.37 C 92.09,17.95 93.67,18.93 95.1,20.04 95.28,20.59 95.45,21.14 95.2,21.6 95.2,21.6 93.91,23.42 93.35,24.31 92.67,25.39 92.41,25.8 91.75,26.89 90.43,29.08 91.34,29.35 91.34,29.35 90.32,29.08 89.36,29.39 88.34,29.38 88.34,29.38 88.07,26.33 87.96,25.04 87.84,23.55 86.34,22.92 86.34,22.92 86.34,22.92 87.08,21.8 87.39,21.3 87.92,20.41 88.2,19.57 88.8,18.72 89.15,18.22 90.04,17.37 90.04,17.37 Z" />
		<path style="fill:#620e0f" d="M 89.89,17.43 89.99,13.96 C 89.99,13.96 90.54,13.34 90.99,12.94 91.44,12.52 91.94,11.72 92.28,11.21 92.65,10.64 93.41,10.42 93.67,9.79 93.88,9.275 94.09,8.171 94.09,8.171 94.63,7.862 95.1,7.828 95.47,8.136 95.53,7.91 96.64,9.383 96.87,10.78 96.98,11.45 97.08,12.13 97.32,12.77 97.57,13.44 98.33,14.65 98.33,14.65 98.33,14.65 98.15,15.56 97.87,16.11 97.6,16.66 96.92,17.47 96.48,18.16 96.04,18.85 94.94,20.08 94.94,20.08 93.22,19.45 91.53,18.58 89.89,17.43 Z" />
		<path style="fill:#c93824" d="M 99.38,4.069 C 99.04,4.415 98.62,4.983 98.96,5.755 98.96,5.755 100.5,7.684 101.1,8.732 101.7,9.7 102.6,11.77 102.6,11.77 102.6,11.77 103.6,12.6 104.2,12.9 105.1,13.35 106.7,14.85 106.7,14.85 107.4,13.33 108,11.02 108.1,9.758 107.5,9.598 107.3,8.84 106.7,8.037 106.5,7.838 106.3,7.217 105.8,6.782 104.8,5.849 104.5,5.334 104.1,4.533 Z" />
		<path style="fill:#7c1a17" d="M 189.5,44.99 C 189.4,46.32 189.1,47.39 188.4,48.1 L 178.6,45.51 C 178.6,45.51 178,44.87 177.8,44.59 177.1,43.83 176.4,43.35 175.9,42.52 175.8,42.36 175.7,41.97 175.7,41.97 175.7,41.97 179.2,42.51 180.9,42.81 182.2,43.04 183.5,43.23 184.8,43.55 186.4,43.95 189.5,44.99 189.5,44.99 Z" />
		<path style="fill:#ab2418" d="M 99.3,14.95 C 101,14.15 102,12.47 102,10.45 103,12.17 105.3,13.41 107.1,13.93 107.1,13.96 108,16.88 108.4,18.13 108.7,18.98 109.4,20.64 109.4,20.64 109.7,21.65 109,22.01 107.4,21.7 106.2,21.52 104.2,21.69 103.1,20.18 Z" />
		<path style="fill:url(#linearGradient46)" d="M 95.38,8.27 C 95.38,8.27 95.99,9.147 96.32,9.691 96.9,10.66 96.94,11.9 97.2,13 97.58,14.59 99.44,15.45 99.54,15.32 99.54,15.32 101.3,13.9 101.9,13 102.3,12.48 102.4,11.54 102.4,11.54 102.4,11.54 101.8,9.355 101.3,8.533 100.8,7.636 100.2,6.968 99.69,6.053 99.51,5.719 99.14,5.294 99.14,5.294 97.72,6.271 96.36,7.033 95.38,8.27 Z" />
		<path style="fill:#9b1e16" d="M 97.91,14.25 C 97.91,16.33 97.17,16.66 96.67,17.56 95.93,18.23 95.27,18.92 94.71,19.68 94.48,20.56 94.95,21.08 95.15,21.53 L 96.12,23.22 C 97.17,25.04 97.51,26.42 98.4,27.3 98.4,27.3 99.18,28.24 99.69,28.56 100.2,28.88 100.8,29.08 101.4,29.19 102.1,29.31 103.4,29.21 103.4,29.21 103.4,29.21 102.3,27.54 102.1,26.59 101.8,25.36 102,24.12 102.3,22.89 102.5,21.9 103.5,20.14 103.5,20.14 103.5,20.14 101.1,16.77 99.55,15.31 99.07,14.83 97.91,14.25 97.91,14.25 Z" />
		<path style="fill:#7d1613" d="M 103.4,19.92 C 104.3,20.4 105.2,21.03 105.8,21.17 106.8,21.4 107.6,21.82 108.9,21.7 108.4,21.79 108.2,22.21 108.4,22.99 108.6,23.82 108.5,24.49 108.4,25.4 L 108.2,27.68 C 108.3,28.19 108.3,28.63 109,29.48 109,29.48 108.1,29.03 107.5,29 106.8,28.97 106.1,29.31 105.4,29.37 104.7,29.44 103.2,29.21 103.2,29.21 L 102,27.15 C 101.2,25.85 101.7,24.25 102.2,22.92 Z" />
		<path style="fill:#961e1a" d="M 142.9,34.61 143.2,31.21 C 143.2,31.21 144.6,31.94 145.3,32.25 146.4,32.79 147.5,33.24 148.7,33.58 149.2,33.72 149.7,33.76 150.2,33.9 151,34.13 151.6,34.27 152.4,34.65 153,34.97 153.8,35.59 154.4,35.96 155.1,36.36 155.7,36.68 156.4,37.09 157.1,37.53 157.8,38.02 158.5,38.5 160,39.6 163.1,41.63 163.1,41.63 L 159.8,45.19 143.5,38.63 Z" />
		<path style="fill:url(#linearGradient49)" d="M 95.1,21.19 C 95.1,21.19 94.46,22.7 93.96,23.34 92.06,25.74 91.28,26.86 91.27,27.14 91.27,27.14 90.69,28.44 90.88,29.06 91.25,30.26 92.91,32.4 93.33,32.84 93.91,33.45 94.68,33.85 95.15,33.93 95.15,33.93 97.75,33.85 98.99,34.29 99.89,34.61 100.7,35.38 101.4,35.97 102.2,36.57 102.8,37.26 103.5,37.84 104.1,38.29 105.2,39.24 105.2,39.24 L 108.7,41.67 C 108.7,41.67 108.1,40.56 108.1,39.95 108.1,39.42 108.6,38.98 108.6,38.45 108.6,37.93 108.2,37.49 107.9,37.04 106.6,34.74 104.5,33.02 103.8,30.45 103.7,30.03 103.6,29.11 103.6,29.11 103.6,29.11 102.3,28.36 101.7,28.44 100.5,28.58 98.33,27.5 97.47,25.54 97.1,24.7 96.84,23.43 95.94,22.45 95.6,22.08 95.1,21.19 95.1,21.19 Z" />
		<path style="fill:#801a15" d="M 93.93,33.31 C 93.93,33.31 93.52,33.84 93.31,33.95 92.31,34.51 92.28,35.17 91.03,36.06 90.22,36.63 89.9,37.2 89.4,37.5 89.3,37.56 88.41,37.68 88.41,37.68 88.41,37.68 89.47,37.85 89.68,37.99 90.02,38.22 90.18,38.64 90.47,38.92 90.84,39.28 91.34,39.86 91.78,40.13 92.22,40.4 92.6,40.44 93.11,40.51 94.63,40.7 96.18,40.28 97.64,39.82 98.11,39.67 98.53,39.41 98.96,39.16 99.87,38.63 100.8,37.92 101.7,37.48 102.1,37.3 102.8,37.07 102.8,37.07 102.8,37.07 101.8,36.02 101.2,35.54 100.8,35.25 100,34.66 100,34.66 99.29,34.27 98.62,33.76 97.92,33.73 96.95,33.69 95.78,33.77 94.95,33.6 94.47,33.51 94.1,33.41 93.93,33.31 Z" />
		<path style="fill:#64110f" d="M 90.6,44.85 C 91.29,43.64 91.71,42.31 92.19,41.01 92.31,40.67 92.22,40.45 92.11,40.25 92.11,40.25 93.65,40.21 94.42,40.16 95.47,40.08 96.36,39.94 97.49,39.81 97.92,39.76 98.64,39.29 98.64,39.29 98.64,39.29 99.62,39.92 100,40.22 101,41.01 102,41.84 102.8,42.83 103.1,43.21 103.3,43.72 103.7,44.06 104.1,44.44 105,44.9 105,44.9 105.2,45.9 104.9,47.38 105.8,47.76 105.4,47.49 104.7,47.43 103.8,47.56 102.2,47.76 100.6,47.95 99.13,48.15 98.57,48.18 98.41,48.39 98.14,48.55 98.1,48.34 97.76,48.05 97.27,47.71 96.58,47.43 96.17,47.2 94.82,46.8 94.19,46.68 93.1,45.91 92.26,45.42 91.85,45.11 91.22,44.98 90.6,44.85 Z" />
		<path style="fill:#751816" d="M 189.5,44.99 188.1,48.75 C 188.1,48.75 195.6,50.15 199.5,50.57 201,50.73 203.9,50.86 203.9,50.86 203.9,50.86 201.2,47.96 199.5,46.97 197.9,46.02 196,45.42 194.2,45.09 192.6,44.81 189.5,44.99 189.5,44.99 Z" />
		<path style="fill:#841a15" d="M 98.33,39.57 C 98.44,39.23 98.97,39.11 99.3,38.87 L 101.3,37.62 C 101.8,37.29 102.1,36.89 103,37.1 103,37.1 104.5,38.42 105.3,38.99 105.8,39.36 106.2,39.63 106.7,39.98 107.4,40.48 108.8,41.6 108.8,41.6 108.8,41.6 110.8,43.09 111.9,43.69 112.4,43.99 113.6,44.43 113.6,44.43 113.6,44.43 111.1,44.46 109.8,44.52 108.4,44.59 105.6,44.82 105.6,44.82 105.3,44.8 105,44.93 104.6,44.82 104,44.47 103.5,44.02 102.9,43.41 L 100.4,40.66 C 99.8,40.17 98.92,39.54 98.33,39.57 Z" />
		<path style="fill:#801b16" d="M 80.65,48.55 C 81.12,48.37 81.59,48.17 81.95,47.76 L 83.57,45.94 C 84.11,45.33 84.75,45.11 85.4,44.92 L 90.04,44.66 C 90.8,44.71 91.47,44.88 92.19,45.24 92.19,45.24 93.57,46.15 94.3,46.44 95.72,47 96.59,47.19 97.61,47.81 97.86,47.96 98.28,48.38 98.28,48.38 97.82,49.15 97.53,49.99 97.41,50.93 97.41,50.93 94.28,51.17 92.76,51.17 91.71,51.17 89.41,51.35 89.34,51.47 L 88.88,51.04 C 88.88,51.04 87.28,50.88 86.5,50.7 85.7,50.52 84.75,50.04 83.97,49.76 82.79,49.34 80.65,48.55 80.65,48.55 Z" />
		<path style="fill:#861b18" d="M 161.3,42.71 162.6,41.28 C 162.6,41.28 162.9,41.54 163.1,41.57 165.1,41.87 168.8,42.71 168.8,42.71 L 173.8,43.74 176,43.98 178.2,44.85 180.9,45.83 183.8,46.36 186.4,46.6 188.7,46.86 190.6,47.47 192.7,48.13 195.6,49.11 199.6,50.51 197.3,50.43 192.9,49.82 187.2,49.85 183.1,50.09 161.1,49.11 Z" />
		<path style="fill:#781712" d="M 69.07,54.05 C 69.34,52.6 70.46,51.49 70.99,50.14 71.07,49.93 71.34,49.76 71.65,49.61 71.9,49.49 75.03,49.04 76.73,48.82 77.79,48.68 78.85,48.55 79.91,48.5 80.38,48.48 80.85,48.41 81.31,48.5 82.25,48.69 83.06,49.29 83.96,49.61 85.1,50.02 86.28,50.35 87.45,50.67 88.15,50.86 89.57,51.2 89.57,51.2 89.57,51.2 89.84,52.23 89.89,52.8 89.94,53.36 89.88,54.45 89.88,54.45 89.88,54.45 87.85,54.64 86.66,54.72 85.64,54.79 84.63,54.94 83.61,55.04 82.24,55.18 80.88,55.5 79.51,55.43 78.12,55.36 76.79,54.82 75.41,54.64 73.42,54.37 69.07,54.05 69.07,54.05 Z" />
		<path style="fill:#901b16" d="M 89.71,54.44 C 89.68,53.26 89.74,52.32 89.41,51.27 89.41,51.27 90.48,51.15 91.02,51.12 92.75,51.04 94.63,51.24 96.3,50.84 96.75,50.73 97.43,50.38 97.43,50.38 97.43,50.38 97.39,50.7 97.67,50.78 100,51.37 101.4,51.74 103.3,52.2 104.2,52.42 105.2,52.69 106.2,52.89 107,53.06 107,53.06 107.3,53.37 107.7,53.81 108.3,54.8 108.3,54.8 107.6,55 106.8,55.2 105.5,55.2 104.8,55.2 104.1,55.23 103.4,55.51 102.4,55.9 101.4,56.02 100.5,55.57 100.3,55.44 99.79,55.47 99.17,55.38 99.17,55.38 97.89,55.17 97.24,55.09 94.74,54.79 89.71,54.44 89.71,54.44 Z" />
		<path style="fill:#911e17" d="M 97.11,50.88 C 97.11,50.88 97.45,50.11 97.61,49.72 97.75,49.38 97.84,49.01 98.03,48.69 98.16,48.48 98.27,48.19 98.51,48.13 101.1,47.5 105.2,47.23 105.2,47.23 105.2,47.23 106.2,47.75 106.9,48 108.4,48.54 109.9,49.21 111.4,49.67 112.2,49.89 113.7,50.19 113.7,50.19 113.7,50.19 112.4,50.67 111.7,50.98 110.7,51.4 109.7,52 108.7,52.47 107,53.27 107.6,53.06 106.6,53 105,52.9 102.5,52.04 100.9,51.68 99.64,51.4 97.11,50.88 97.11,50.88 Z" />
		<path style="fill:#941b14" d="M 149.9,39.46 148,43.78 166.5,49.03 170.7,47.02 C 170.7,47.02 167,45.14 165.1,44.29 163.3,43.48 161.4,42.79 159.5,42.16 157.5,41.48 155.4,40.81 153.4,40.27 152.2,39.95 149.9,39.46 149.9,39.46 Z" />
		<path style="fill:#851c17;stroke:none;stroke-opacity:0" d="M 105,47.34 C 104.8,46.62 104.8,45.8 105,44.77 105.8,44.61 106.6,44.42 107.2,44.48 107.2,44.48 110.9,43.41 112.4,43.8 113.4,44.07 114.4,44.24 115.5,44.27 116.7,44.29 117.5,44.26 119,44.2 119.3,44.19 120.1,44.11 120.1,44.11 120.1,44.11 121.1,45.01 121.7,45.42 122.3,45.89 123.6,46.73 123.6,46.73 123.8,48.04 123.9,49.34 123.8,50.56 123.8,50.56 120.7,50.47 119.2,50.51 117.1,50.57 112.9,50.66 112.9,50.66 111.7,49.94 110.3,49.26 108.6,48.98 107.3,48.7 106,48.27 105,47.34 Z" />
		<path style="fill:#9d2419;stroke:none;stroke-width:0.3;stroke-opacity:0" d="M 108,54.9 C 107.2,54.55 106.9,53.65 106.6,52.76 106.6,52.76 108.2,52.3 109.1,52 110.5,51.55 111.7,50.54 113.1,50.25 116.6,49.54 120.2,50.12 123.7,50.33 125.3,50.43 126.9,50.58 128.4,50.87 130.2,51.18 133.6,52.16 133.6,52.16 136.3,52.84 138.2,53.33 140.1,53.79 L 135.4,54.9 C 133.4,55.05 131.4,55.21 128.9,54.45 128.9,54.45 126.4,54.41 125.1,54.4 121.9,54.39 118.6,54.28 115.5,54.45 113,54.59 108,54.9 108,54.9 Z" />
		<path style="fill:#901d16" d="M 136.8,41.8 138,40.63 148.7,42.39 154.4,45.33 152.6,47.6 144.5,46.7 138.9,44.56 Z" />
		<path style="fill:#661212" d="M 103,28.87 C 103,28.87 103.9,31.42 104.4,32.42 105.4,34.38 108,37.86 108,37.86 108,37.86 109.1,37.72 109.7,37.6 110.1,37.52 110.5,37.41 110.9,37.28 111.4,37.13 112.5,36.96 112.5,36.96 112.5,36.96 111.9,35.93 111.8,35.48 111.7,34.29 112.1,32.86 111.5,32.06 111.5,32.06 110.9,31.06 110.5,30.63 109.8,29.87 108.4,28.61 108.4,28.61 108.4,28.61 107.4,28.96 107,29 106.6,29.05 106.1,28.87 105.7,28.92 105.2,28.98 104.1,29.27 104.1,29.27 103.8,29.36 103,28.87 103,28.87 Z" />
		<path style="fill:url(#linearGradient4)" d="M 89.59,7.451 C 89.59,7.451 90.92,8.118 91.62,8.25 92.49,8.413 93.42,8.29 94.3,8.314 94.65,8.323 95.08,8.286 95.47,8.218 96.12,8.102 96.99,6.865 97.73,6.33 98.26,5.957 99.12,5.469 99.12,5.469 99.25,5.149 99.33,4.775 99.3,4.285 99.27,3.887 97.65,3.85 96.79,3.517 96.08,3.242 94.67,2.686 94.67,2.686 94.67,2.686 92.75,4.217 91.87,5.051 91.06,5.813 89.59,7.451 89.59,7.451 Z" />
		<path style="fill:#952119" d="M 111.2,31.89 C 111.2,31.89 111.5,32.66 111.6,33.22 111.7,34 111.7,34.99 111.7,35.79 V 36.67 C 111.7,36.67 112.6,37.31 113,37.48 114.1,37.95 114.4,38.56 115.5,39.06 116.1,39.32 117.2,39.55 117.8,39.85 118.4,40.18 118.9,40.71 119.5,40.99 120.9,41.61 122.3,41.86 123.8,41.9 124.2,41.91 125,41.85 125.4,41.96 125.8,42.06 126.3,42.23 126.3,42.23 126.6,41.46 126.9,40.66 126.8,39.64 126.8,39.64 126.2,39.3 125.9,39.04 125.4,38.61 124.9,38.02 124.4,37.55 123.8,36.95 122.9,36.13 122.4,35.41 122,34.84 122,34.36 121.5,33.92 121,33.45 120.2,33.3 119.5,33.13 118.3,32.84 117,32.92 115.7,32.78 114.7,32.67 113.7,32.66 112.7,32.41 112.2,32.29 111.2,31.89 111.2,31.89 Z" />
		<path style="fill:#881b15" d="M 119.3,40.89 C 119.3,40.89 122.9,41.5 124.8,41.7 125.1,41.73 125.7,41.76 126.1,41.91 126.5,42.06 127,42.42 127.3,42.6 128.7,43.37 129.8,43.44 131.3,44.04 132.4,44.49 133.7,45.14 134.8,45.7 135.9,46.27 137.9,47.63 137.9,47.63 137.9,47.63 136.4,47.96 135.7,48 134.7,48.06 133.7,47.9 132.7,47.84 131.2,47.75 129.7,47.69 128.2,47.62 127.2,47.58 126.2,47.66 125.3,47.47 124.6,47.33 123.9,47.02 123.3,46.68 122.2,46.09 121.5,45.19 120.4,44.74 120.2,44.67 119.6,44.63 119.6,44.63 119.6,44.63 119.6,43.18 119.6,42.86 119.6,42.03 119.3,40.89 119.3,40.89 Z" />
		<path style="fill:#6e1413" d="M 120.2,44.66 C 120.2,44.66 119.5,44.6 119.2,44.55 117.4,44.27 115.5,44.5 113.7,44.35 113.1,44.3 112.5,44.3 111.9,44.06 110.1,43.28 107.2,40.48 107.2,40.48 107.4,39.09 107.8,38.31 108.3,37.71 109.3,36.9 110.6,36.69 111.9,36.67 111.9,36.67 117,38.72 119,40.56 119.3,40.81 119.5,41.14 119.6,41.49 119.8,42.25 119.7,43.08 120,43.84 120.1,44.13 120.2,44.66 120.2,44.66 Z" />
		<path style="fill:#a5251b" d="M 130.3,22.71 C 130.5,23.68 128.9,25.69 127.9,26.93 L 134,33.74 143,34.57 C 143.1,33.33 143.2,32.11 143.4,31.3 143.4,31.3 142,30.54 141.3,30.12 140.3,29.54 139.4,28.94 138.1,28.1 137.2,27.49 136.4,27.01 135.5,26.3 134.9,25.81 133.7,24.74 133.7,24.74 133.7,24.74 133.2,24.25 132.9,24.06 132.5,23.8 132,23.73 131.6,23.52 131.1,23.3 130.3,22.71 130.3,22.71 Z" />
		<path style="fill:#a82618" d="M 108,27.8 108.2,26.71 C 108.3,26.3 108.2,26.15 108.3,25.73 108.3,25.22 108.4,24.72 108.4,24.21 108.4,23.64 108.3,23.44 108.3,22.87 108.2,22.53 108.2,22.19 108.3,21.81 108.4,21.32 109.1,21.16 109.6,21.14 110,21.12 110.4,21.4 110.8,21.65 111.3,22.06 111.9,22.62 112.4,23.06 113,23.58 113.5,24.01 114.1,24.58 114.8,25.19 115.4,25.96 116.1,26.57 117.1,27.48 118.4,27.99 119.5,28.71 120.5,29.37 122.7,30.58 122.7,30.58 V 31.25 C 122.7,31.97 122.1,32.64 121.9,33.36 121.8,33.72 121.7,34.48 121.7,34.48 121.7,34.48 121.2,34.04 120.9,33.86 120.3,33.53 119.7,33.45 119,33.34 118.1,33.19 116.8,33.22 115.9,33.12 115,33.02 114.3,33.13 113.4,32.92 112.8,32.8 112.2,32.61 111.7,32.3 110.9,31.79 110.5,30.82 109.8,30.19 109.4,29.8 108.8,29.42 108.5,28.95 108.3,28.66 107.9,28.16 108,27.8 Z" />
		<path style="fill:#751915" d="M 126.3,41.8 C 126.3,41.12 126.8,39.6 126.8,39.6 126.8,39.6 130.6,40.3 132.4,40.76 133.4,41.02 134.4,41.51 135.5,41.6 136,41.64 137,41.75 137,41.75 137,41.75 138.1,43.14 138.8,43.69 139.4,44.16 140.1,44.48 140.8,44.82 142,45.42 143.5,45.9 144.7,46.32 145.9,46.7 147,46.85 148.1,46.87 148.8,46.87 149.5,46.84 150.1,46.87 151.1,46.93 152.8,47.32 152.8,47.32 L 157.3,50.71 C 155.8,50.77 154.5,51.12 153.3,51.39 153.3,51.39 150.8,50.16 149.6,49.77 146.2,48.63 142.5,48.55 139,47.89 138.4,47.77 137.7,47.85 137.1,47.52 136.7,47.27 136.4,46.85 136,46.56 135,45.82 134,45.43 132.8,44.97 130.9,44.22 126.5,42.48 126.5,42.48 126.5,42.48 126.3,42 126.3,41.8 Z" />
		<path style="fill:#972018" d="M 122.5,30.59 C 122.5,30.59 122.6,31.5 122.5,31.87 122.3,32.4 121.9,32.81 121.7,33.34 121.6,33.72 121.6,34.25 121.6,34.25 122.5,36.35 124,37.65 125.5,38.85 126.3,39.49 127,39.91 127.9,40.05 127.9,40.05 129.8,40.61 130.7,40.83 132.5,41.27 134.2,41.84 136.1,41.89 136.4,41.9 137,41.77 137,41.77 137.6,41.38 137.7,41.22 137.9,40.83 137.9,40.83 137,40.14 136.6,39.8 136.1,39.38 135.5,38.9 135,38.43 134.1,37.58 133.6,37.21 132.6,35.75 132.4,35.48 132.3,34.92 132.4,34.85 129.2,33.16 126,31.42 122.5,30.59 Z" />
		<path style="fill:#931a17" d="M 116,19.58 C 116,19.58 116.3,20.97 116.5,21.63 116.7,22.27 117.1,23.15 117.4,23.77 117.9,24.9 118.4,25.54 119.3,26.43 119.3,26.43 120.3,27.5 120.7,28.14 121.3,28.98 121.7,29.85 122.5,30.61 122.6,30.73 123.2,30.8 123.4,30.88 126.2,32.08 128.8,33.06 131.4,34.52 L 132.3,35 134.8,32.04 C 134.8,32.04 130.6,28.57 128.9,26.42 128.9,26.3 128.7,25.93 128.7,25.93 128.7,25.93 125.4,24.51 124,23.76 122.9,23.14 122.1,22.74 121.1,22.17 120.2,21.61 119.2,20.99 118.2,20.52 117.4,20.18 116,19.58 116,19.58 Z" />
		<path style="fill:#7d1815" d="M 132.3,34.96 134.8,32.02 C 137.2,32.72 140.1,33.3 143.1,33.81 145.3,35.94 147.5,37.9 149.9,39.48 L 148.7,42.39 C 145.1,42.11 141.6,41.98 137.9,40.92 134.8,38.46 132.3,36.37 132.3,34.96 Z" />
		<path style="fill:#8d1e19" d="M 154.1,45.2 152.7,47.3 C 152.7,47.3 153.7,48.31 154.2,48.69 155.2,49.4 157.1,50.72 157.1,50.72 157.1,50.72 163.6,51.07 166.9,51.36 168.9,51.53 171.4,51.47 173.3,51.86 174.4,52.09 176.6,52.81 176.6,52.81 176.6,52.81 179,52.52 179.9,52.44 181.2,52.32 182,52.43 183.3,52.28 184,52.2 185.5,51.84 185.5,51.84 185.5,51.84 184.6,51.3 184.1,50.99 183.7,50.73 183,50.14 183,50.14 183,50.14 180.7,49.38 179.5,49.06 176.8,48.32 171.2,47.15 171.2,47.15 171.2,47.15 169.3,47.12 168.5,47.11 167,47.08 165.8,46.98 164.3,46.83 162.4,46.64 160.5,46.64 158.7,46.31 157.2,46.05 154.1,45.2 154.1,45.2 Z" />
		<path style="fill:#861b16" d="M 123.6,46.7 C 124,46.47 124.4,47.17 124.8,47.23 127.9,47.63 130.5,47.68 133.6,47.61 134.2,47.59 135.3,47.71 135.9,47.63 136.5,47.55 137.2,47.34 137.8,47.36 141.2,47.46 144.9,48.45 148.1,49.31 151.2,50.12 153.4,51.36 153.4,51.36 153.4,51.36 152.6,52.11 152.2,52.52 151.9,52.99 151.6,53.03 151.2,53.05 148.6,53.2 147.1,53.02 145.2,53.15 144.1,53.23 143,53.18 142,53.4 141.1,53.58 139.4,53.98 139.4,53.98 139.4,53.98 137.5,53.16 136.5,52.92 135.3,52.64 134.1,52.73 132.9,52.47 131.7,52.22 130.7,51.7 129.5,51.41 127.6,50.94 125.8,50.98 123.8,50.44 123.5,50.38 123.5,50.03 123.4,49.82 123.1,48.84 122.7,47.24 123.6,46.7 Z" />
	</g>
</g>
</svg>